M48
; DRILL file {KiCad 5.1.5-52549c5~84~ubuntu18.04.1} date Fri 20 Mar 2020 10:09:53 AM WET
; FORMAT={-:-/ absolute / inch / decimal}
; #@! TF.CreationDate,2020-03-20T10:09:53+00:00
; #@! TF.GenerationSoftware,Kicad,Pcbnew,5.1.5-52549c5~84~ubuntu18.04.1
; #@! TF.FileFunction,Plated,1,2,PTH
FMAT,2
INCH
T1C0.0157
T2C0.0256
T3C0.0276
T4C0.0315
T5C0.0394
T6C0.0433
T7C0.0472
T8C0.0512
%
G90
G05
T1
X5.5906Y-3.9764
X5.6594Y-3.8445
X5.6594Y-3.937
X5.6988Y-5.2067
X5.7087Y-3.9764
X5.8622Y-4.6772
X5.8858Y-4.3898
X5.9449Y-5.2756
X5.9449Y-5.3543
X6.0276Y-4.0866
X6.063Y-4.8819
X6.0827Y-5.3543
X6.0906Y-4.7116
X6.1122Y-4.7933
X6.2205Y-5.0886
X6.2205Y-5.0295
X6.2244Y-5.1496
X6.2776Y-5.0295
X6.2795Y-5.0886
X6.2815Y-5.1476
X6.2953Y-4.5354
X6.3386Y-4.1142
X6.3386Y-4.2323
X6.4055Y-5.0394
X6.4055Y-5.1496
X6.4055Y-5.2126
X6.4061Y-5.0965
X6.5157Y-5.5118
X6.5539Y-3.8767
X6.6339Y-4.8031
X6.6339Y-4.9016
X6.6339Y-5.5118
X6.7323Y-5.2864
X6.752Y-4.8031
X6.752Y-4.9016
X6.752Y-5.0472
X6.9783Y-4.3307
X6.9882Y-4.4488
X7.0472Y-5.5709
X7.0669Y-4.1142
X7.0866Y-5.5709
X7.126Y-3.9173
X7.1752Y-4.4783
X7.2244Y-3.8583
X7.3819Y-4.1535
X7.3819Y-4.3799
X7.3819Y-4.7638
X7.3819Y-4.9803
X7.4606Y-5.3937
X7.4606Y-5.6299
X7.5787Y-4.2323
X7.6181Y-4.5276
X7.6969Y-4.7638
X7.7559Y-4.8425
X7.7559Y-4.9606
X7.8051Y-4.7638
X8.0118Y-4.5571
X8.0709Y-3.8976
T4
X7.5984Y-2.5
X7.5984Y-2.5984
X6.4075Y-2.6969
X6.4075Y-2.7953
X6.1024Y-2.3622
X6.1024Y-2.5
X6.7421Y-2.9921
X6.7421Y-3.0906
X6.752Y-3.3071
X6.752Y-3.4055
X6.1024Y-2.6969
X6.1024Y-2.7953
X6.3976Y-3.3071
X6.3976Y-3.4055
X6.4075Y-2.9921
X6.4075Y-3.0906
X6.7323Y-2.6969
X6.7323Y-2.7953
X7.4506Y-5.5313
X7.4506Y-5.7234
X7.7559Y-3.1693
X7.7559Y-3.2677
T5
X5.374Y-2.1835
X5.374Y-2.2835
X4.6654Y-4.8035
X4.6654Y-4.9035
X4.6654Y-5.0035
X4.6654Y-5.1035
X4.6654Y-5.2035
X4.6654Y-5.3035
X4.6654Y-5.4035
X5.4361Y-5.8364
X5.5361Y-5.8364
X5.6361Y-5.8364
X5.7361Y-5.8364
X4.9488Y-5.6457
X5.0488Y-5.6457
X5.1488Y-5.6457
X5.9276Y-5.6693
X6.0276Y-5.6693
X6.1276Y-5.6693
X6.2276Y-5.6693
X6.3276Y-5.6693
X6.4276Y-5.6693
X6.5276Y-5.6693
X6.6276Y-5.6693
X6.7276Y-5.6693
X6.8276Y-5.6693
X6.9276Y-5.6693
X7.0276Y-5.6693
X8.3465Y-2.2984
X8.3465Y-2.3984
X8.3465Y-2.4984
X8.3465Y-2.5984
X4.626Y-2.2835
X4.626Y-2.3835
X4.626Y-2.4835
X4.626Y-2.5835
X4.626Y-2.6835
X4.626Y-2.7835
X4.626Y-2.8835
X4.626Y-2.9835
X4.9606Y-5.8366
X5.0606Y-5.8366
X5.1606Y-5.8366
X5.2606Y-5.8366
X5.8071Y-2.1835
X5.8071Y-2.2835
X5.7677Y-5.1362
X5.7677Y-5.2362
X5.7677Y-5.3362
X5.7677Y-5.4362
X4.6457Y-3.9063
X4.6457Y-4.0063
X4.6457Y-4.1063
X4.6457Y-4.2063
X4.6457Y-4.3063
X4.6457Y-4.4063
X4.6457Y-4.5063
X4.6457Y-4.6063
X5.9349Y-5.8317
X6.0349Y-5.8317
X6.1349Y-5.8317
X6.2349Y-5.8317
X6.3349Y-5.8317
X6.4349Y-5.8317
X6.5349Y-5.8317
X6.6349Y-5.8317
X6.7349Y-5.8317
X6.8349Y-5.8317
X6.9349Y-5.8317
X7.0349Y-5.8317
T6
X6.0039Y-2.1457
X6.1039Y-2.1457
X6.2039Y-2.1457
X7.2016Y-2.8248
X7.3016Y-2.8248
X7.4016Y-2.8248
X7.7823Y-2.8248
X7.8823Y-2.8248
X7.9823Y-2.8248
X7.7754Y-5.5561
X7.7754Y-5.812
X7.9526Y-5.5561
X7.9526Y-5.812
T7
X5.5512Y-2.5591
X5.5512Y-2.7559
T8
X6.9882Y-2.2441
X6.9882Y-2.4409
X7.2835Y-3.1299
X7.2835Y-3.3268
T2
G00X7.915Y-2.1878
M15
G01X7.915Y-2.2035
M16
G05
G00X8.1055Y-2.1878
M15
G01X8.1055Y-2.2035
M16
G05
T3
G00X7.9028Y-2.0677
M15
G01X7.9028Y-2.0874
M16
G05
G00X8.1177Y-2.0677
M15
G01X8.1177Y-2.0874
M16
G05
T4
G00X4.8701Y-2.1614
M15
G01X4.8701Y-2.248
M16
G05
G00X5.1024Y-2.0945
M15
G01X5.0157Y-2.0945
M16
G05
G00X5.1102Y-2.3228
M15
G01X5.0079Y-2.3228
M16
G05
T0
M30
