G04 #@! TF.GenerationSoftware,KiCad,Pcbnew,5.1.5-52549c5~84~ubuntu18.04.1*
G04 #@! TF.CreationDate,2020-03-20T10:09:58+00:00*
G04 #@! TF.ProjectId,digiWave,64696769-5761-4766-952e-6b696361645f,rev?*
G04 #@! TF.SameCoordinates,Original*
G04 #@! TF.FileFunction,Soldermask,Bot*
G04 #@! TF.FilePolarity,Negative*
%FSLAX46Y46*%
G04 Gerber Fmt 4.6, Leading zero omitted, Abs format (unit mm)*
G04 Created by KiCad (PCBNEW 5.1.5-52549c5~84~ubuntu18.04.1) date 2020-03-20 10:09:58*
%MOMM*%
%LPD*%
G04 APERTURE LIST*
%ADD10C,0.100000*%
G04 APERTURE END LIST*
D10*
G36*
X128653512Y-147353927D02*
G01*
X128802812Y-147383624D01*
X128966784Y-147451544D01*
X129114354Y-147550147D01*
X129239853Y-147675646D01*
X129338456Y-147823216D01*
X129406376Y-147987188D01*
X129433158Y-148121833D01*
X129439807Y-148155258D01*
X129441000Y-148161259D01*
X129441000Y-148338741D01*
X129406376Y-148512812D01*
X129338456Y-148676784D01*
X129239853Y-148824354D01*
X129114354Y-148949853D01*
X128966784Y-149048456D01*
X128802812Y-149116376D01*
X128658906Y-149145000D01*
X128628742Y-149151000D01*
X128451258Y-149151000D01*
X128421094Y-149145000D01*
X128277188Y-149116376D01*
X128113216Y-149048456D01*
X127965646Y-148949853D01*
X127840147Y-148824354D01*
X127741544Y-148676784D01*
X127673624Y-148512812D01*
X127639000Y-148338741D01*
X127639000Y-148161259D01*
X127640194Y-148155258D01*
X127646842Y-148121833D01*
X127673624Y-147987188D01*
X127741544Y-147823216D01*
X127840147Y-147675646D01*
X127965646Y-147550147D01*
X128113216Y-147451544D01*
X128277188Y-147383624D01*
X128426488Y-147353927D01*
X128451258Y-147349000D01*
X128628742Y-147349000D01*
X128653512Y-147353927D01*
G37*
G36*
X131193512Y-147353927D02*
G01*
X131342812Y-147383624D01*
X131506784Y-147451544D01*
X131654354Y-147550147D01*
X131779853Y-147675646D01*
X131878456Y-147823216D01*
X131946376Y-147987188D01*
X131973158Y-148121833D01*
X131979807Y-148155258D01*
X131981000Y-148161259D01*
X131981000Y-148338741D01*
X131946376Y-148512812D01*
X131878456Y-148676784D01*
X131779853Y-148824354D01*
X131654354Y-148949853D01*
X131506784Y-149048456D01*
X131342812Y-149116376D01*
X131198906Y-149145000D01*
X131168742Y-149151000D01*
X130991258Y-149151000D01*
X130961094Y-149145000D01*
X130817188Y-149116376D01*
X130653216Y-149048456D01*
X130505646Y-148949853D01*
X130380147Y-148824354D01*
X130281544Y-148676784D01*
X130213624Y-148512812D01*
X130179000Y-148338741D01*
X130179000Y-148161259D01*
X130180194Y-148155258D01*
X130186842Y-148121833D01*
X130213624Y-147987188D01*
X130281544Y-147823216D01*
X130380147Y-147675646D01*
X130505646Y-147550147D01*
X130653216Y-147451544D01*
X130817188Y-147383624D01*
X130966488Y-147353927D01*
X130991258Y-147349000D01*
X131168742Y-147349000D01*
X131193512Y-147353927D01*
G37*
G36*
X133733512Y-147353927D02*
G01*
X133882812Y-147383624D01*
X134046784Y-147451544D01*
X134194354Y-147550147D01*
X134319853Y-147675646D01*
X134418456Y-147823216D01*
X134486376Y-147987188D01*
X134513158Y-148121833D01*
X134519807Y-148155258D01*
X134521000Y-148161259D01*
X134521000Y-148338741D01*
X134486376Y-148512812D01*
X134418456Y-148676784D01*
X134319853Y-148824354D01*
X134194354Y-148949853D01*
X134046784Y-149048456D01*
X133882812Y-149116376D01*
X133738906Y-149145000D01*
X133708742Y-149151000D01*
X133531258Y-149151000D01*
X133501094Y-149145000D01*
X133357188Y-149116376D01*
X133193216Y-149048456D01*
X133045646Y-148949853D01*
X132920147Y-148824354D01*
X132821544Y-148676784D01*
X132753624Y-148512812D01*
X132719000Y-148338741D01*
X132719000Y-148161259D01*
X132720194Y-148155258D01*
X132726842Y-148121833D01*
X132753624Y-147987188D01*
X132821544Y-147823216D01*
X132920147Y-147675646D01*
X133045646Y-147550147D01*
X133193216Y-147451544D01*
X133357188Y-147383624D01*
X133506488Y-147353927D01*
X133531258Y-147349000D01*
X133708742Y-147349000D01*
X133733512Y-147353927D01*
G37*
G36*
X126901000Y-149151000D02*
G01*
X125099000Y-149151000D01*
X125099000Y-147349000D01*
X126901000Y-147349000D01*
X126901000Y-149151000D01*
G37*
G36*
X146597000Y-149145000D02*
G01*
X144795000Y-149145000D01*
X144795000Y-147343000D01*
X146597000Y-147343000D01*
X146597000Y-149145000D01*
G37*
G36*
X143269512Y-147347927D02*
G01*
X143418812Y-147377624D01*
X143582784Y-147445544D01*
X143730354Y-147544147D01*
X143855853Y-147669646D01*
X143954456Y-147817216D01*
X144022376Y-147981188D01*
X144050351Y-148121833D01*
X144057000Y-148155258D01*
X144057000Y-148332742D01*
X144052073Y-148357512D01*
X144022376Y-148506812D01*
X143954456Y-148670784D01*
X143855853Y-148818354D01*
X143730354Y-148943853D01*
X143582784Y-149042456D01*
X143418812Y-149110376D01*
X143269512Y-149140073D01*
X143244742Y-149145000D01*
X143067258Y-149145000D01*
X143042488Y-149140073D01*
X142893188Y-149110376D01*
X142729216Y-149042456D01*
X142581646Y-148943853D01*
X142456147Y-148818354D01*
X142357544Y-148670784D01*
X142289624Y-148506812D01*
X142259927Y-148357512D01*
X142255000Y-148332742D01*
X142255000Y-148155258D01*
X142261649Y-148121833D01*
X142289624Y-147981188D01*
X142357544Y-147817216D01*
X142456147Y-147669646D01*
X142581646Y-147544147D01*
X142729216Y-147445544D01*
X142893188Y-147377624D01*
X143042488Y-147347927D01*
X143067258Y-147343000D01*
X143244742Y-147343000D01*
X143269512Y-147347927D01*
G37*
G36*
X140729512Y-147347927D02*
G01*
X140878812Y-147377624D01*
X141042784Y-147445544D01*
X141190354Y-147544147D01*
X141315853Y-147669646D01*
X141414456Y-147817216D01*
X141482376Y-147981188D01*
X141510351Y-148121833D01*
X141517000Y-148155258D01*
X141517000Y-148332742D01*
X141512073Y-148357512D01*
X141482376Y-148506812D01*
X141414456Y-148670784D01*
X141315853Y-148818354D01*
X141190354Y-148943853D01*
X141042784Y-149042456D01*
X140878812Y-149110376D01*
X140729512Y-149140073D01*
X140704742Y-149145000D01*
X140527258Y-149145000D01*
X140502488Y-149140073D01*
X140353188Y-149110376D01*
X140189216Y-149042456D01*
X140041646Y-148943853D01*
X139916147Y-148818354D01*
X139817544Y-148670784D01*
X139749624Y-148506812D01*
X139719927Y-148357512D01*
X139715000Y-148332742D01*
X139715000Y-148155258D01*
X139721649Y-148121833D01*
X139749624Y-147981188D01*
X139817544Y-147817216D01*
X139916147Y-147669646D01*
X140041646Y-147544147D01*
X140189216Y-147445544D01*
X140353188Y-147377624D01*
X140502488Y-147347927D01*
X140527258Y-147343000D01*
X140704742Y-147343000D01*
X140729512Y-147347927D01*
G37*
G36*
X138189512Y-147347927D02*
G01*
X138338812Y-147377624D01*
X138502784Y-147445544D01*
X138650354Y-147544147D01*
X138775853Y-147669646D01*
X138874456Y-147817216D01*
X138942376Y-147981188D01*
X138970351Y-148121833D01*
X138977000Y-148155258D01*
X138977000Y-148332742D01*
X138972073Y-148357512D01*
X138942376Y-148506812D01*
X138874456Y-148670784D01*
X138775853Y-148818354D01*
X138650354Y-148943853D01*
X138502784Y-149042456D01*
X138338812Y-149110376D01*
X138189512Y-149140073D01*
X138164742Y-149145000D01*
X137987258Y-149145000D01*
X137962488Y-149140073D01*
X137813188Y-149110376D01*
X137649216Y-149042456D01*
X137501646Y-148943853D01*
X137376147Y-148818354D01*
X137277544Y-148670784D01*
X137209624Y-148506812D01*
X137179927Y-148357512D01*
X137175000Y-148332742D01*
X137175000Y-148155258D01*
X137181649Y-148121833D01*
X137209624Y-147981188D01*
X137277544Y-147817216D01*
X137376147Y-147669646D01*
X137501646Y-147544147D01*
X137649216Y-147445544D01*
X137813188Y-147377624D01*
X137962488Y-147347927D01*
X137987258Y-147343000D01*
X138164742Y-147343000D01*
X138189512Y-147347927D01*
G37*
G36*
X158479512Y-147227927D02*
G01*
X158628812Y-147257624D01*
X158792784Y-147325544D01*
X158940354Y-147424147D01*
X159065853Y-147549646D01*
X159164456Y-147697216D01*
X159232376Y-147861188D01*
X159267000Y-148035259D01*
X159267000Y-148212741D01*
X159232376Y-148386812D01*
X159164456Y-148550784D01*
X159065853Y-148698354D01*
X158940354Y-148823853D01*
X158792784Y-148922456D01*
X158628812Y-148990376D01*
X158479512Y-149020073D01*
X158454742Y-149025000D01*
X158277258Y-149025000D01*
X158252488Y-149020073D01*
X158103188Y-148990376D01*
X157939216Y-148922456D01*
X157791646Y-148823853D01*
X157666147Y-148698354D01*
X157567544Y-148550784D01*
X157499624Y-148386812D01*
X157465000Y-148212741D01*
X157465000Y-148035259D01*
X157499624Y-147861188D01*
X157567544Y-147697216D01*
X157666147Y-147549646D01*
X157791646Y-147424147D01*
X157939216Y-147325544D01*
X158103188Y-147257624D01*
X158252488Y-147227927D01*
X158277258Y-147223000D01*
X158454742Y-147223000D01*
X158479512Y-147227927D01*
G37*
G36*
X151647000Y-149025000D02*
G01*
X149845000Y-149025000D01*
X149845000Y-147223000D01*
X151647000Y-147223000D01*
X151647000Y-149025000D01*
G37*
G36*
X153399512Y-147227927D02*
G01*
X153548812Y-147257624D01*
X153712784Y-147325544D01*
X153860354Y-147424147D01*
X153985853Y-147549646D01*
X154084456Y-147697216D01*
X154152376Y-147861188D01*
X154187000Y-148035259D01*
X154187000Y-148212741D01*
X154152376Y-148386812D01*
X154084456Y-148550784D01*
X153985853Y-148698354D01*
X153860354Y-148823853D01*
X153712784Y-148922456D01*
X153548812Y-148990376D01*
X153399512Y-149020073D01*
X153374742Y-149025000D01*
X153197258Y-149025000D01*
X153172488Y-149020073D01*
X153023188Y-148990376D01*
X152859216Y-148922456D01*
X152711646Y-148823853D01*
X152586147Y-148698354D01*
X152487544Y-148550784D01*
X152419624Y-148386812D01*
X152385000Y-148212741D01*
X152385000Y-148035259D01*
X152419624Y-147861188D01*
X152487544Y-147697216D01*
X152586147Y-147549646D01*
X152711646Y-147424147D01*
X152859216Y-147325544D01*
X153023188Y-147257624D01*
X153172488Y-147227927D01*
X153197258Y-147223000D01*
X153374742Y-147223000D01*
X153399512Y-147227927D01*
G37*
G36*
X155939512Y-147227927D02*
G01*
X156088812Y-147257624D01*
X156252784Y-147325544D01*
X156400354Y-147424147D01*
X156525853Y-147549646D01*
X156624456Y-147697216D01*
X156692376Y-147861188D01*
X156727000Y-148035259D01*
X156727000Y-148212741D01*
X156692376Y-148386812D01*
X156624456Y-148550784D01*
X156525853Y-148698354D01*
X156400354Y-148823853D01*
X156252784Y-148922456D01*
X156088812Y-148990376D01*
X155939512Y-149020073D01*
X155914742Y-149025000D01*
X155737258Y-149025000D01*
X155712488Y-149020073D01*
X155563188Y-148990376D01*
X155399216Y-148922456D01*
X155251646Y-148823853D01*
X155126147Y-148698354D01*
X155027544Y-148550784D01*
X154959624Y-148386812D01*
X154925000Y-148212741D01*
X154925000Y-148035259D01*
X154959624Y-147861188D01*
X155027544Y-147697216D01*
X155126147Y-147549646D01*
X155251646Y-147424147D01*
X155399216Y-147325544D01*
X155563188Y-147257624D01*
X155712488Y-147227927D01*
X155737258Y-147223000D01*
X155914742Y-147223000D01*
X155939512Y-147227927D01*
G37*
G36*
X161019512Y-147227927D02*
G01*
X161168812Y-147257624D01*
X161332784Y-147325544D01*
X161480354Y-147424147D01*
X161605853Y-147549646D01*
X161704456Y-147697216D01*
X161772376Y-147861188D01*
X161807000Y-148035259D01*
X161807000Y-148212741D01*
X161772376Y-148386812D01*
X161704456Y-148550784D01*
X161605853Y-148698354D01*
X161480354Y-148823853D01*
X161332784Y-148922456D01*
X161168812Y-148990376D01*
X161019512Y-149020073D01*
X160994742Y-149025000D01*
X160817258Y-149025000D01*
X160792488Y-149020073D01*
X160643188Y-148990376D01*
X160479216Y-148922456D01*
X160331646Y-148823853D01*
X160206147Y-148698354D01*
X160107544Y-148550784D01*
X160039624Y-148386812D01*
X160005000Y-148212741D01*
X160005000Y-148035259D01*
X160039624Y-147861188D01*
X160107544Y-147697216D01*
X160206147Y-147549646D01*
X160331646Y-147424147D01*
X160479216Y-147325544D01*
X160643188Y-147257624D01*
X160792488Y-147227927D01*
X160817258Y-147223000D01*
X160994742Y-147223000D01*
X161019512Y-147227927D01*
G37*
G36*
X163559512Y-147227927D02*
G01*
X163708812Y-147257624D01*
X163872784Y-147325544D01*
X164020354Y-147424147D01*
X164145853Y-147549646D01*
X164244456Y-147697216D01*
X164312376Y-147861188D01*
X164347000Y-148035259D01*
X164347000Y-148212741D01*
X164312376Y-148386812D01*
X164244456Y-148550784D01*
X164145853Y-148698354D01*
X164020354Y-148823853D01*
X163872784Y-148922456D01*
X163708812Y-148990376D01*
X163559512Y-149020073D01*
X163534742Y-149025000D01*
X163357258Y-149025000D01*
X163332488Y-149020073D01*
X163183188Y-148990376D01*
X163019216Y-148922456D01*
X162871646Y-148823853D01*
X162746147Y-148698354D01*
X162647544Y-148550784D01*
X162579624Y-148386812D01*
X162545000Y-148212741D01*
X162545000Y-148035259D01*
X162579624Y-147861188D01*
X162647544Y-147697216D01*
X162746147Y-147549646D01*
X162871646Y-147424147D01*
X163019216Y-147325544D01*
X163183188Y-147257624D01*
X163332488Y-147227927D01*
X163357258Y-147223000D01*
X163534742Y-147223000D01*
X163559512Y-147227927D01*
G37*
G36*
X168639512Y-147227927D02*
G01*
X168788812Y-147257624D01*
X168952784Y-147325544D01*
X169100354Y-147424147D01*
X169225853Y-147549646D01*
X169324456Y-147697216D01*
X169392376Y-147861188D01*
X169427000Y-148035259D01*
X169427000Y-148212741D01*
X169392376Y-148386812D01*
X169324456Y-148550784D01*
X169225853Y-148698354D01*
X169100354Y-148823853D01*
X168952784Y-148922456D01*
X168788812Y-148990376D01*
X168639512Y-149020073D01*
X168614742Y-149025000D01*
X168437258Y-149025000D01*
X168412488Y-149020073D01*
X168263188Y-148990376D01*
X168099216Y-148922456D01*
X167951646Y-148823853D01*
X167826147Y-148698354D01*
X167727544Y-148550784D01*
X167659624Y-148386812D01*
X167625000Y-148212741D01*
X167625000Y-148035259D01*
X167659624Y-147861188D01*
X167727544Y-147697216D01*
X167826147Y-147549646D01*
X167951646Y-147424147D01*
X168099216Y-147325544D01*
X168263188Y-147257624D01*
X168412488Y-147227927D01*
X168437258Y-147223000D01*
X168614742Y-147223000D01*
X168639512Y-147227927D01*
G37*
G36*
X178799512Y-147227927D02*
G01*
X178948812Y-147257624D01*
X179112784Y-147325544D01*
X179260354Y-147424147D01*
X179385853Y-147549646D01*
X179484456Y-147697216D01*
X179552376Y-147861188D01*
X179587000Y-148035259D01*
X179587000Y-148212741D01*
X179552376Y-148386812D01*
X179484456Y-148550784D01*
X179385853Y-148698354D01*
X179260354Y-148823853D01*
X179112784Y-148922456D01*
X178948812Y-148990376D01*
X178799512Y-149020073D01*
X178774742Y-149025000D01*
X178597258Y-149025000D01*
X178572488Y-149020073D01*
X178423188Y-148990376D01*
X178259216Y-148922456D01*
X178111646Y-148823853D01*
X177986147Y-148698354D01*
X177887544Y-148550784D01*
X177819624Y-148386812D01*
X177785000Y-148212741D01*
X177785000Y-148035259D01*
X177819624Y-147861188D01*
X177887544Y-147697216D01*
X177986147Y-147549646D01*
X178111646Y-147424147D01*
X178259216Y-147325544D01*
X178423188Y-147257624D01*
X178572488Y-147227927D01*
X178597258Y-147223000D01*
X178774742Y-147223000D01*
X178799512Y-147227927D01*
G37*
G36*
X176259512Y-147227927D02*
G01*
X176408812Y-147257624D01*
X176572784Y-147325544D01*
X176720354Y-147424147D01*
X176845853Y-147549646D01*
X176944456Y-147697216D01*
X177012376Y-147861188D01*
X177047000Y-148035259D01*
X177047000Y-148212741D01*
X177012376Y-148386812D01*
X176944456Y-148550784D01*
X176845853Y-148698354D01*
X176720354Y-148823853D01*
X176572784Y-148922456D01*
X176408812Y-148990376D01*
X176259512Y-149020073D01*
X176234742Y-149025000D01*
X176057258Y-149025000D01*
X176032488Y-149020073D01*
X175883188Y-148990376D01*
X175719216Y-148922456D01*
X175571646Y-148823853D01*
X175446147Y-148698354D01*
X175347544Y-148550784D01*
X175279624Y-148386812D01*
X175245000Y-148212741D01*
X175245000Y-148035259D01*
X175279624Y-147861188D01*
X175347544Y-147697216D01*
X175446147Y-147549646D01*
X175571646Y-147424147D01*
X175719216Y-147325544D01*
X175883188Y-147257624D01*
X176032488Y-147227927D01*
X176057258Y-147223000D01*
X176234742Y-147223000D01*
X176259512Y-147227927D01*
G37*
G36*
X173719512Y-147227927D02*
G01*
X173868812Y-147257624D01*
X174032784Y-147325544D01*
X174180354Y-147424147D01*
X174305853Y-147549646D01*
X174404456Y-147697216D01*
X174472376Y-147861188D01*
X174507000Y-148035259D01*
X174507000Y-148212741D01*
X174472376Y-148386812D01*
X174404456Y-148550784D01*
X174305853Y-148698354D01*
X174180354Y-148823853D01*
X174032784Y-148922456D01*
X173868812Y-148990376D01*
X173719512Y-149020073D01*
X173694742Y-149025000D01*
X173517258Y-149025000D01*
X173492488Y-149020073D01*
X173343188Y-148990376D01*
X173179216Y-148922456D01*
X173031646Y-148823853D01*
X172906147Y-148698354D01*
X172807544Y-148550784D01*
X172739624Y-148386812D01*
X172705000Y-148212741D01*
X172705000Y-148035259D01*
X172739624Y-147861188D01*
X172807544Y-147697216D01*
X172906147Y-147549646D01*
X173031646Y-147424147D01*
X173179216Y-147325544D01*
X173343188Y-147257624D01*
X173492488Y-147227927D01*
X173517258Y-147223000D01*
X173694742Y-147223000D01*
X173719512Y-147227927D01*
G37*
G36*
X166099512Y-147227927D02*
G01*
X166248812Y-147257624D01*
X166412784Y-147325544D01*
X166560354Y-147424147D01*
X166685853Y-147549646D01*
X166784456Y-147697216D01*
X166852376Y-147861188D01*
X166887000Y-148035259D01*
X166887000Y-148212741D01*
X166852376Y-148386812D01*
X166784456Y-148550784D01*
X166685853Y-148698354D01*
X166560354Y-148823853D01*
X166412784Y-148922456D01*
X166248812Y-148990376D01*
X166099512Y-149020073D01*
X166074742Y-149025000D01*
X165897258Y-149025000D01*
X165872488Y-149020073D01*
X165723188Y-148990376D01*
X165559216Y-148922456D01*
X165411646Y-148823853D01*
X165286147Y-148698354D01*
X165187544Y-148550784D01*
X165119624Y-148386812D01*
X165085000Y-148212741D01*
X165085000Y-148035259D01*
X165119624Y-147861188D01*
X165187544Y-147697216D01*
X165286147Y-147549646D01*
X165411646Y-147424147D01*
X165559216Y-147325544D01*
X165723188Y-147257624D01*
X165872488Y-147227927D01*
X165897258Y-147223000D01*
X166074742Y-147223000D01*
X166099512Y-147227927D01*
G37*
G36*
X171179512Y-147227927D02*
G01*
X171328812Y-147257624D01*
X171492784Y-147325544D01*
X171640354Y-147424147D01*
X171765853Y-147549646D01*
X171864456Y-147697216D01*
X171932376Y-147861188D01*
X171967000Y-148035259D01*
X171967000Y-148212741D01*
X171932376Y-148386812D01*
X171864456Y-148550784D01*
X171765853Y-148698354D01*
X171640354Y-148823853D01*
X171492784Y-148922456D01*
X171328812Y-148990376D01*
X171179512Y-149020073D01*
X171154742Y-149025000D01*
X170977258Y-149025000D01*
X170952488Y-149020073D01*
X170803188Y-148990376D01*
X170639216Y-148922456D01*
X170491646Y-148823853D01*
X170366147Y-148698354D01*
X170267544Y-148550784D01*
X170199624Y-148386812D01*
X170165000Y-148212741D01*
X170165000Y-148035259D01*
X170199624Y-147861188D01*
X170267544Y-147697216D01*
X170366147Y-147549646D01*
X170491646Y-147424147D01*
X170639216Y-147325544D01*
X170803188Y-147257624D01*
X170952488Y-147227927D01*
X170977258Y-147223000D01*
X171154742Y-147223000D01*
X171179512Y-147227927D01*
G37*
G36*
X197802564Y-146613389D02*
G01*
X197993833Y-146692615D01*
X197993835Y-146692616D01*
X198165973Y-146807635D01*
X198312365Y-146954027D01*
X198427385Y-147126167D01*
X198506611Y-147317436D01*
X198547000Y-147520484D01*
X198547000Y-147727516D01*
X198506611Y-147930564D01*
X198483156Y-147987189D01*
X198427384Y-148121835D01*
X198312365Y-148293973D01*
X198165973Y-148440365D01*
X197993835Y-148555384D01*
X197993834Y-148555385D01*
X197993833Y-148555385D01*
X197802564Y-148634611D01*
X197599516Y-148675000D01*
X197392484Y-148675000D01*
X197189436Y-148634611D01*
X196998167Y-148555385D01*
X196998166Y-148555385D01*
X196998165Y-148555384D01*
X196826027Y-148440365D01*
X196679635Y-148293973D01*
X196564616Y-148121835D01*
X196508844Y-147987189D01*
X196485389Y-147930564D01*
X196445000Y-147727516D01*
X196445000Y-147520484D01*
X196485389Y-147317436D01*
X196564615Y-147126167D01*
X196679635Y-146954027D01*
X196826027Y-146807635D01*
X196998165Y-146692616D01*
X196998167Y-146692615D01*
X197189436Y-146613389D01*
X197392484Y-146573000D01*
X197599516Y-146573000D01*
X197802564Y-146613389D01*
G37*
G36*
X202302564Y-146613389D02*
G01*
X202493833Y-146692615D01*
X202493835Y-146692616D01*
X202665973Y-146807635D01*
X202812365Y-146954027D01*
X202927385Y-147126167D01*
X203006611Y-147317436D01*
X203047000Y-147520484D01*
X203047000Y-147727516D01*
X203006611Y-147930564D01*
X202983156Y-147987189D01*
X202927384Y-148121835D01*
X202812365Y-148293973D01*
X202665973Y-148440365D01*
X202493835Y-148555384D01*
X202493834Y-148555385D01*
X202493833Y-148555385D01*
X202302564Y-148634611D01*
X202099516Y-148675000D01*
X201892484Y-148675000D01*
X201689436Y-148634611D01*
X201498167Y-148555385D01*
X201498166Y-148555385D01*
X201498165Y-148555384D01*
X201326027Y-148440365D01*
X201179635Y-148293973D01*
X201064616Y-148121835D01*
X201008844Y-147987189D01*
X200985389Y-147930564D01*
X200945000Y-147727516D01*
X200945000Y-147520484D01*
X200985389Y-147317436D01*
X201064615Y-147126167D01*
X201179635Y-146954027D01*
X201326027Y-146807635D01*
X201498165Y-146692616D01*
X201498167Y-146692615D01*
X201689436Y-146613389D01*
X201892484Y-146573000D01*
X202099516Y-146573000D01*
X202302564Y-146613389D01*
G37*
G36*
X189479642Y-144603781D02*
G01*
X189625414Y-144664162D01*
X189625416Y-144664163D01*
X189756608Y-144751822D01*
X189868178Y-144863392D01*
X189955837Y-144994584D01*
X189955838Y-144994586D01*
X190016219Y-145140358D01*
X190047000Y-145295107D01*
X190047000Y-145452893D01*
X190016219Y-145607642D01*
X189955838Y-145753414D01*
X189955837Y-145753416D01*
X189868178Y-145884608D01*
X189756608Y-145996178D01*
X189625416Y-146083837D01*
X189625415Y-146083838D01*
X189625414Y-146083838D01*
X189479642Y-146144219D01*
X189324893Y-146175000D01*
X189167107Y-146175000D01*
X189012358Y-146144219D01*
X188866586Y-146083838D01*
X188866585Y-146083838D01*
X188866584Y-146083837D01*
X188735392Y-145996178D01*
X188623822Y-145884608D01*
X188536163Y-145753416D01*
X188536162Y-145753414D01*
X188475781Y-145607642D01*
X188445000Y-145452893D01*
X188445000Y-145295107D01*
X188475781Y-145140358D01*
X188536162Y-144994586D01*
X188536163Y-144994584D01*
X188623822Y-144863392D01*
X188735392Y-144751822D01*
X188866584Y-144664163D01*
X188866586Y-144664162D01*
X189012358Y-144603781D01*
X189167107Y-144573000D01*
X189324893Y-144573000D01*
X189479642Y-144603781D01*
G37*
G36*
X170993512Y-143103927D02*
G01*
X171142812Y-143133624D01*
X171306784Y-143201544D01*
X171454354Y-143300147D01*
X171579853Y-143425646D01*
X171678456Y-143573216D01*
X171746376Y-143737188D01*
X171781000Y-143911259D01*
X171781000Y-144088741D01*
X171746376Y-144262812D01*
X171678456Y-144426784D01*
X171579853Y-144574354D01*
X171454354Y-144699853D01*
X171306784Y-144798456D01*
X171142812Y-144866376D01*
X170993512Y-144896073D01*
X170968742Y-144901000D01*
X170791258Y-144901000D01*
X170766488Y-144896073D01*
X170617188Y-144866376D01*
X170453216Y-144798456D01*
X170305646Y-144699853D01*
X170180147Y-144574354D01*
X170081544Y-144426784D01*
X170013624Y-144262812D01*
X169979000Y-144088741D01*
X169979000Y-143911259D01*
X170013624Y-143737188D01*
X170081544Y-143573216D01*
X170180147Y-143425646D01*
X170305646Y-143300147D01*
X170453216Y-143201544D01*
X170617188Y-143133624D01*
X170766488Y-143103927D01*
X170791258Y-143099000D01*
X170968742Y-143099000D01*
X170993512Y-143103927D01*
G37*
G36*
X179401000Y-144901000D02*
G01*
X177599000Y-144901000D01*
X177599000Y-143099000D01*
X179401000Y-143099000D01*
X179401000Y-144901000D01*
G37*
G36*
X176073512Y-143103927D02*
G01*
X176222812Y-143133624D01*
X176386784Y-143201544D01*
X176534354Y-143300147D01*
X176659853Y-143425646D01*
X176758456Y-143573216D01*
X176826376Y-143737188D01*
X176861000Y-143911259D01*
X176861000Y-144088741D01*
X176826376Y-144262812D01*
X176758456Y-144426784D01*
X176659853Y-144574354D01*
X176534354Y-144699853D01*
X176386784Y-144798456D01*
X176222812Y-144866376D01*
X176073512Y-144896073D01*
X176048742Y-144901000D01*
X175871258Y-144901000D01*
X175846488Y-144896073D01*
X175697188Y-144866376D01*
X175533216Y-144798456D01*
X175385646Y-144699853D01*
X175260147Y-144574354D01*
X175161544Y-144426784D01*
X175093624Y-144262812D01*
X175059000Y-144088741D01*
X175059000Y-143911259D01*
X175093624Y-143737188D01*
X175161544Y-143573216D01*
X175260147Y-143425646D01*
X175385646Y-143300147D01*
X175533216Y-143201544D01*
X175697188Y-143133624D01*
X175846488Y-143103927D01*
X175871258Y-143099000D01*
X176048742Y-143099000D01*
X176073512Y-143103927D01*
G37*
G36*
X173533512Y-143103927D02*
G01*
X173682812Y-143133624D01*
X173846784Y-143201544D01*
X173994354Y-143300147D01*
X174119853Y-143425646D01*
X174218456Y-143573216D01*
X174286376Y-143737188D01*
X174321000Y-143911259D01*
X174321000Y-144088741D01*
X174286376Y-144262812D01*
X174218456Y-144426784D01*
X174119853Y-144574354D01*
X173994354Y-144699853D01*
X173846784Y-144798456D01*
X173682812Y-144866376D01*
X173533512Y-144896073D01*
X173508742Y-144901000D01*
X173331258Y-144901000D01*
X173306488Y-144896073D01*
X173157188Y-144866376D01*
X172993216Y-144798456D01*
X172845646Y-144699853D01*
X172720147Y-144574354D01*
X172621544Y-144426784D01*
X172553624Y-144262812D01*
X172519000Y-144088741D01*
X172519000Y-143911259D01*
X172553624Y-143737188D01*
X172621544Y-143573216D01*
X172720147Y-143425646D01*
X172845646Y-143300147D01*
X172993216Y-143201544D01*
X173157188Y-143133624D01*
X173306488Y-143103927D01*
X173331258Y-143099000D01*
X173508742Y-143099000D01*
X173533512Y-143103927D01*
G37*
G36*
X168453512Y-143103927D02*
G01*
X168602812Y-143133624D01*
X168766784Y-143201544D01*
X168914354Y-143300147D01*
X169039853Y-143425646D01*
X169138456Y-143573216D01*
X169206376Y-143737188D01*
X169241000Y-143911259D01*
X169241000Y-144088741D01*
X169206376Y-144262812D01*
X169138456Y-144426784D01*
X169039853Y-144574354D01*
X168914354Y-144699853D01*
X168766784Y-144798456D01*
X168602812Y-144866376D01*
X168453512Y-144896073D01*
X168428742Y-144901000D01*
X168251258Y-144901000D01*
X168226488Y-144896073D01*
X168077188Y-144866376D01*
X167913216Y-144798456D01*
X167765646Y-144699853D01*
X167640147Y-144574354D01*
X167541544Y-144426784D01*
X167473624Y-144262812D01*
X167439000Y-144088741D01*
X167439000Y-143911259D01*
X167473624Y-143737188D01*
X167541544Y-143573216D01*
X167640147Y-143425646D01*
X167765646Y-143300147D01*
X167913216Y-143201544D01*
X168077188Y-143133624D01*
X168226488Y-143103927D01*
X168251258Y-143099000D01*
X168428742Y-143099000D01*
X168453512Y-143103927D01*
G37*
G36*
X165913512Y-143103927D02*
G01*
X166062812Y-143133624D01*
X166226784Y-143201544D01*
X166374354Y-143300147D01*
X166499853Y-143425646D01*
X166598456Y-143573216D01*
X166666376Y-143737188D01*
X166701000Y-143911259D01*
X166701000Y-144088741D01*
X166666376Y-144262812D01*
X166598456Y-144426784D01*
X166499853Y-144574354D01*
X166374354Y-144699853D01*
X166226784Y-144798456D01*
X166062812Y-144866376D01*
X165913512Y-144896073D01*
X165888742Y-144901000D01*
X165711258Y-144901000D01*
X165686488Y-144896073D01*
X165537188Y-144866376D01*
X165373216Y-144798456D01*
X165225646Y-144699853D01*
X165100147Y-144574354D01*
X165001544Y-144426784D01*
X164933624Y-144262812D01*
X164899000Y-144088741D01*
X164899000Y-143911259D01*
X164933624Y-143737188D01*
X165001544Y-143573216D01*
X165100147Y-143425646D01*
X165225646Y-143300147D01*
X165373216Y-143201544D01*
X165537188Y-143133624D01*
X165686488Y-143103927D01*
X165711258Y-143099000D01*
X165888742Y-143099000D01*
X165913512Y-143103927D01*
G37*
G36*
X150673512Y-143103927D02*
G01*
X150822812Y-143133624D01*
X150986784Y-143201544D01*
X151134354Y-143300147D01*
X151259853Y-143425646D01*
X151358456Y-143573216D01*
X151426376Y-143737188D01*
X151461000Y-143911259D01*
X151461000Y-144088741D01*
X151426376Y-144262812D01*
X151358456Y-144426784D01*
X151259853Y-144574354D01*
X151134354Y-144699853D01*
X150986784Y-144798456D01*
X150822812Y-144866376D01*
X150673512Y-144896073D01*
X150648742Y-144901000D01*
X150471258Y-144901000D01*
X150446488Y-144896073D01*
X150297188Y-144866376D01*
X150133216Y-144798456D01*
X149985646Y-144699853D01*
X149860147Y-144574354D01*
X149761544Y-144426784D01*
X149693624Y-144262812D01*
X149659000Y-144088741D01*
X149659000Y-143911259D01*
X149693624Y-143737188D01*
X149761544Y-143573216D01*
X149860147Y-143425646D01*
X149985646Y-143300147D01*
X150133216Y-143201544D01*
X150297188Y-143133624D01*
X150446488Y-143103927D01*
X150471258Y-143099000D01*
X150648742Y-143099000D01*
X150673512Y-143103927D01*
G37*
G36*
X163373512Y-143103927D02*
G01*
X163522812Y-143133624D01*
X163686784Y-143201544D01*
X163834354Y-143300147D01*
X163959853Y-143425646D01*
X164058456Y-143573216D01*
X164126376Y-143737188D01*
X164161000Y-143911259D01*
X164161000Y-144088741D01*
X164126376Y-144262812D01*
X164058456Y-144426784D01*
X163959853Y-144574354D01*
X163834354Y-144699853D01*
X163686784Y-144798456D01*
X163522812Y-144866376D01*
X163373512Y-144896073D01*
X163348742Y-144901000D01*
X163171258Y-144901000D01*
X163146488Y-144896073D01*
X162997188Y-144866376D01*
X162833216Y-144798456D01*
X162685646Y-144699853D01*
X162560147Y-144574354D01*
X162461544Y-144426784D01*
X162393624Y-144262812D01*
X162359000Y-144088741D01*
X162359000Y-143911259D01*
X162393624Y-143737188D01*
X162461544Y-143573216D01*
X162560147Y-143425646D01*
X162685646Y-143300147D01*
X162833216Y-143201544D01*
X162997188Y-143133624D01*
X163146488Y-143103927D01*
X163171258Y-143099000D01*
X163348742Y-143099000D01*
X163373512Y-143103927D01*
G37*
G36*
X160833512Y-143103927D02*
G01*
X160982812Y-143133624D01*
X161146784Y-143201544D01*
X161294354Y-143300147D01*
X161419853Y-143425646D01*
X161518456Y-143573216D01*
X161586376Y-143737188D01*
X161621000Y-143911259D01*
X161621000Y-144088741D01*
X161586376Y-144262812D01*
X161518456Y-144426784D01*
X161419853Y-144574354D01*
X161294354Y-144699853D01*
X161146784Y-144798456D01*
X160982812Y-144866376D01*
X160833512Y-144896073D01*
X160808742Y-144901000D01*
X160631258Y-144901000D01*
X160606488Y-144896073D01*
X160457188Y-144866376D01*
X160293216Y-144798456D01*
X160145646Y-144699853D01*
X160020147Y-144574354D01*
X159921544Y-144426784D01*
X159853624Y-144262812D01*
X159819000Y-144088741D01*
X159819000Y-143911259D01*
X159853624Y-143737188D01*
X159921544Y-143573216D01*
X160020147Y-143425646D01*
X160145646Y-143300147D01*
X160293216Y-143201544D01*
X160457188Y-143133624D01*
X160606488Y-143103927D01*
X160631258Y-143099000D01*
X160808742Y-143099000D01*
X160833512Y-143103927D01*
G37*
G36*
X158293512Y-143103927D02*
G01*
X158442812Y-143133624D01*
X158606784Y-143201544D01*
X158754354Y-143300147D01*
X158879853Y-143425646D01*
X158978456Y-143573216D01*
X159046376Y-143737188D01*
X159081000Y-143911259D01*
X159081000Y-144088741D01*
X159046376Y-144262812D01*
X158978456Y-144426784D01*
X158879853Y-144574354D01*
X158754354Y-144699853D01*
X158606784Y-144798456D01*
X158442812Y-144866376D01*
X158293512Y-144896073D01*
X158268742Y-144901000D01*
X158091258Y-144901000D01*
X158066488Y-144896073D01*
X157917188Y-144866376D01*
X157753216Y-144798456D01*
X157605646Y-144699853D01*
X157480147Y-144574354D01*
X157381544Y-144426784D01*
X157313624Y-144262812D01*
X157279000Y-144088741D01*
X157279000Y-143911259D01*
X157313624Y-143737188D01*
X157381544Y-143573216D01*
X157480147Y-143425646D01*
X157605646Y-143300147D01*
X157753216Y-143201544D01*
X157917188Y-143133624D01*
X158066488Y-143103927D01*
X158091258Y-143099000D01*
X158268742Y-143099000D01*
X158293512Y-143103927D01*
G37*
G36*
X155753512Y-143103927D02*
G01*
X155902812Y-143133624D01*
X156066784Y-143201544D01*
X156214354Y-143300147D01*
X156339853Y-143425646D01*
X156438456Y-143573216D01*
X156506376Y-143737188D01*
X156541000Y-143911259D01*
X156541000Y-144088741D01*
X156506376Y-144262812D01*
X156438456Y-144426784D01*
X156339853Y-144574354D01*
X156214354Y-144699853D01*
X156066784Y-144798456D01*
X155902812Y-144866376D01*
X155753512Y-144896073D01*
X155728742Y-144901000D01*
X155551258Y-144901000D01*
X155526488Y-144896073D01*
X155377188Y-144866376D01*
X155213216Y-144798456D01*
X155065646Y-144699853D01*
X154940147Y-144574354D01*
X154841544Y-144426784D01*
X154773624Y-144262812D01*
X154739000Y-144088741D01*
X154739000Y-143911259D01*
X154773624Y-143737188D01*
X154841544Y-143573216D01*
X154940147Y-143425646D01*
X155065646Y-143300147D01*
X155213216Y-143201544D01*
X155377188Y-143133624D01*
X155526488Y-143103927D01*
X155551258Y-143099000D01*
X155728742Y-143099000D01*
X155753512Y-143103927D01*
G37*
G36*
X153213512Y-143103927D02*
G01*
X153362812Y-143133624D01*
X153526784Y-143201544D01*
X153674354Y-143300147D01*
X153799853Y-143425646D01*
X153898456Y-143573216D01*
X153966376Y-143737188D01*
X154001000Y-143911259D01*
X154001000Y-144088741D01*
X153966376Y-144262812D01*
X153898456Y-144426784D01*
X153799853Y-144574354D01*
X153674354Y-144699853D01*
X153526784Y-144798456D01*
X153362812Y-144866376D01*
X153213512Y-144896073D01*
X153188742Y-144901000D01*
X153011258Y-144901000D01*
X152986488Y-144896073D01*
X152837188Y-144866376D01*
X152673216Y-144798456D01*
X152525646Y-144699853D01*
X152400147Y-144574354D01*
X152301544Y-144426784D01*
X152233624Y-144262812D01*
X152199000Y-144088741D01*
X152199000Y-143911259D01*
X152233624Y-143737188D01*
X152301544Y-143573216D01*
X152400147Y-143425646D01*
X152525646Y-143300147D01*
X152673216Y-143201544D01*
X152837188Y-143133624D01*
X152986488Y-143103927D01*
X153011258Y-143099000D01*
X153188742Y-143099000D01*
X153213512Y-143103927D01*
G37*
G36*
X130893512Y-142503927D02*
G01*
X131042812Y-142533624D01*
X131206784Y-142601544D01*
X131354354Y-142700147D01*
X131479853Y-142825646D01*
X131578456Y-142973216D01*
X131646376Y-143137188D01*
X131681000Y-143311259D01*
X131681000Y-143488741D01*
X131646376Y-143662812D01*
X131578456Y-143826784D01*
X131479853Y-143974354D01*
X131354354Y-144099853D01*
X131206784Y-144198456D01*
X131042812Y-144266376D01*
X130893512Y-144296073D01*
X130868742Y-144301000D01*
X130691258Y-144301000D01*
X130666488Y-144296073D01*
X130517188Y-144266376D01*
X130353216Y-144198456D01*
X130205646Y-144099853D01*
X130080147Y-143974354D01*
X129981544Y-143826784D01*
X129913624Y-143662812D01*
X129879000Y-143488741D01*
X129879000Y-143311259D01*
X129913624Y-143137188D01*
X129981544Y-142973216D01*
X130080147Y-142825646D01*
X130205646Y-142700147D01*
X130353216Y-142601544D01*
X130517188Y-142533624D01*
X130666488Y-142503927D01*
X130691258Y-142499000D01*
X130868742Y-142499000D01*
X130893512Y-142503927D01*
G37*
G36*
X128353512Y-142503927D02*
G01*
X128502812Y-142533624D01*
X128666784Y-142601544D01*
X128814354Y-142700147D01*
X128939853Y-142825646D01*
X129038456Y-142973216D01*
X129106376Y-143137188D01*
X129141000Y-143311259D01*
X129141000Y-143488741D01*
X129106376Y-143662812D01*
X129038456Y-143826784D01*
X128939853Y-143974354D01*
X128814354Y-144099853D01*
X128666784Y-144198456D01*
X128502812Y-144266376D01*
X128353512Y-144296073D01*
X128328742Y-144301000D01*
X128151258Y-144301000D01*
X128126488Y-144296073D01*
X127977188Y-144266376D01*
X127813216Y-144198456D01*
X127665646Y-144099853D01*
X127540147Y-143974354D01*
X127441544Y-143826784D01*
X127373624Y-143662812D01*
X127339000Y-143488741D01*
X127339000Y-143311259D01*
X127373624Y-143137188D01*
X127441544Y-142973216D01*
X127540147Y-142825646D01*
X127665646Y-142700147D01*
X127813216Y-142601544D01*
X127977188Y-142533624D01*
X128126488Y-142503927D01*
X128151258Y-142499000D01*
X128328742Y-142499000D01*
X128353512Y-142503927D01*
G37*
G36*
X126601000Y-144301000D02*
G01*
X124799000Y-144301000D01*
X124799000Y-142499000D01*
X126601000Y-142499000D01*
X126601000Y-144301000D01*
G37*
G36*
X202302564Y-140113389D02*
G01*
X202493833Y-140192615D01*
X202493835Y-140192616D01*
X202595218Y-140260358D01*
X202665973Y-140307635D01*
X202812365Y-140454027D01*
X202927385Y-140626167D01*
X203006611Y-140817436D01*
X203047000Y-141020484D01*
X203047000Y-141227516D01*
X203006611Y-141430564D01*
X202927385Y-141621833D01*
X202927384Y-141621835D01*
X202812365Y-141793973D01*
X202665973Y-141940365D01*
X202493835Y-142055384D01*
X202493834Y-142055385D01*
X202493833Y-142055385D01*
X202302564Y-142134611D01*
X202099516Y-142175000D01*
X201892484Y-142175000D01*
X201689436Y-142134611D01*
X201498167Y-142055385D01*
X201498166Y-142055385D01*
X201498165Y-142055384D01*
X201326027Y-141940365D01*
X201179635Y-141793973D01*
X201064616Y-141621835D01*
X201064615Y-141621833D01*
X200985389Y-141430564D01*
X200945000Y-141227516D01*
X200945000Y-141020484D01*
X200985389Y-140817436D01*
X201064615Y-140626167D01*
X201179635Y-140454027D01*
X201326027Y-140307635D01*
X201396782Y-140260358D01*
X201498165Y-140192616D01*
X201498167Y-140192615D01*
X201689436Y-140113389D01*
X201892484Y-140073000D01*
X202099516Y-140073000D01*
X202302564Y-140113389D01*
G37*
G36*
X197802564Y-140113389D02*
G01*
X197993833Y-140192615D01*
X197993835Y-140192616D01*
X198095218Y-140260358D01*
X198165973Y-140307635D01*
X198312365Y-140454027D01*
X198427385Y-140626167D01*
X198506611Y-140817436D01*
X198547000Y-141020484D01*
X198547000Y-141227516D01*
X198506611Y-141430564D01*
X198427385Y-141621833D01*
X198427384Y-141621835D01*
X198312365Y-141793973D01*
X198165973Y-141940365D01*
X197993835Y-142055384D01*
X197993834Y-142055385D01*
X197993833Y-142055385D01*
X197802564Y-142134611D01*
X197599516Y-142175000D01*
X197392484Y-142175000D01*
X197189436Y-142134611D01*
X196998167Y-142055385D01*
X196998166Y-142055385D01*
X196998165Y-142055384D01*
X196826027Y-141940365D01*
X196679635Y-141793973D01*
X196564616Y-141621835D01*
X196564615Y-141621833D01*
X196485389Y-141430564D01*
X196445000Y-141227516D01*
X196445000Y-141020484D01*
X196485389Y-140817436D01*
X196564615Y-140626167D01*
X196679635Y-140454027D01*
X196826027Y-140307635D01*
X196896782Y-140260358D01*
X196998165Y-140192616D01*
X196998167Y-140192615D01*
X197189436Y-140113389D01*
X197392484Y-140073000D01*
X197599516Y-140073000D01*
X197802564Y-140113389D01*
G37*
G36*
X189479642Y-139723781D02*
G01*
X189625414Y-139784162D01*
X189625416Y-139784163D01*
X189756608Y-139871822D01*
X189868178Y-139983392D01*
X189955039Y-140113390D01*
X189955838Y-140114586D01*
X190016219Y-140260358D01*
X190047000Y-140415107D01*
X190047000Y-140572893D01*
X190016219Y-140727642D01*
X189979025Y-140817435D01*
X189955837Y-140873416D01*
X189868178Y-141004608D01*
X189756608Y-141116178D01*
X189625416Y-141203837D01*
X189625415Y-141203838D01*
X189625414Y-141203838D01*
X189479642Y-141264219D01*
X189324893Y-141295000D01*
X189167107Y-141295000D01*
X189012358Y-141264219D01*
X188866586Y-141203838D01*
X188866585Y-141203838D01*
X188866584Y-141203837D01*
X188735392Y-141116178D01*
X188623822Y-141004608D01*
X188536163Y-140873416D01*
X188512975Y-140817435D01*
X188475781Y-140727642D01*
X188445000Y-140572893D01*
X188445000Y-140415107D01*
X188475781Y-140260358D01*
X188536162Y-140114586D01*
X188536961Y-140113390D01*
X188623822Y-139983392D01*
X188735392Y-139871822D01*
X188866584Y-139784163D01*
X188866586Y-139784162D01*
X189012358Y-139723781D01*
X189167107Y-139693000D01*
X189324893Y-139693000D01*
X189479642Y-139723781D01*
G37*
G36*
X146613512Y-137183927D02*
G01*
X146762812Y-137213624D01*
X146926784Y-137281544D01*
X147074354Y-137380147D01*
X147199853Y-137505646D01*
X147298456Y-137653216D01*
X147366376Y-137817188D01*
X147401000Y-137991259D01*
X147401000Y-138168741D01*
X147366376Y-138342812D01*
X147298456Y-138506784D01*
X147199853Y-138654354D01*
X147074354Y-138779853D01*
X146926784Y-138878456D01*
X146762812Y-138946376D01*
X146613512Y-138976073D01*
X146588742Y-138981000D01*
X146411258Y-138981000D01*
X146386488Y-138976073D01*
X146237188Y-138946376D01*
X146073216Y-138878456D01*
X145925646Y-138779853D01*
X145800147Y-138654354D01*
X145701544Y-138506784D01*
X145633624Y-138342812D01*
X145599000Y-138168741D01*
X145599000Y-137991259D01*
X145633624Y-137817188D01*
X145701544Y-137653216D01*
X145800147Y-137505646D01*
X145925646Y-137380147D01*
X146073216Y-137281544D01*
X146237188Y-137213624D01*
X146386488Y-137183927D01*
X146411258Y-137179000D01*
X146588742Y-137179000D01*
X146613512Y-137183927D01*
G37*
G36*
X119401000Y-138151000D02*
G01*
X117599000Y-138151000D01*
X117599000Y-136349000D01*
X119401000Y-136349000D01*
X119401000Y-138151000D01*
G37*
G36*
X146613512Y-134643927D02*
G01*
X146762812Y-134673624D01*
X146926784Y-134741544D01*
X147074354Y-134840147D01*
X147199853Y-134965646D01*
X147298456Y-135113216D01*
X147366376Y-135277188D01*
X147401000Y-135451259D01*
X147401000Y-135628741D01*
X147366376Y-135802812D01*
X147298456Y-135966784D01*
X147199853Y-136114354D01*
X147074354Y-136239853D01*
X146926784Y-136338456D01*
X146762812Y-136406376D01*
X146613512Y-136436073D01*
X146588742Y-136441000D01*
X146411258Y-136441000D01*
X146386488Y-136436073D01*
X146237188Y-136406376D01*
X146073216Y-136338456D01*
X145925646Y-136239853D01*
X145800147Y-136114354D01*
X145701544Y-135966784D01*
X145633624Y-135802812D01*
X145599000Y-135628741D01*
X145599000Y-135451259D01*
X145633624Y-135277188D01*
X145701544Y-135113216D01*
X145800147Y-134965646D01*
X145925646Y-134840147D01*
X146073216Y-134741544D01*
X146237188Y-134673624D01*
X146386488Y-134643927D01*
X146411258Y-134639000D01*
X146588742Y-134639000D01*
X146613512Y-134643927D01*
G37*
G36*
X118613512Y-133813927D02*
G01*
X118762812Y-133843624D01*
X118926784Y-133911544D01*
X119074354Y-134010147D01*
X119199853Y-134135646D01*
X119298456Y-134283216D01*
X119366376Y-134447188D01*
X119401000Y-134621259D01*
X119401000Y-134798741D01*
X119366376Y-134972812D01*
X119298456Y-135136784D01*
X119199853Y-135284354D01*
X119074354Y-135409853D01*
X118926784Y-135508456D01*
X118762812Y-135576376D01*
X118613512Y-135606073D01*
X118588742Y-135611000D01*
X118411258Y-135611000D01*
X118386488Y-135606073D01*
X118237188Y-135576376D01*
X118073216Y-135508456D01*
X117925646Y-135409853D01*
X117800147Y-135284354D01*
X117701544Y-135136784D01*
X117633624Y-134972812D01*
X117599000Y-134798741D01*
X117599000Y-134621259D01*
X117633624Y-134447188D01*
X117701544Y-134283216D01*
X117800147Y-134135646D01*
X117925646Y-134010147D01*
X118073216Y-133911544D01*
X118237188Y-133843624D01*
X118386488Y-133813927D01*
X118411258Y-133809000D01*
X118588742Y-133809000D01*
X118613512Y-133813927D01*
G37*
G36*
X146613512Y-132103927D02*
G01*
X146762812Y-132133624D01*
X146926784Y-132201544D01*
X147074354Y-132300147D01*
X147199853Y-132425646D01*
X147298456Y-132573216D01*
X147366376Y-132737188D01*
X147401000Y-132911259D01*
X147401000Y-133088741D01*
X147366376Y-133262812D01*
X147298456Y-133426784D01*
X147199853Y-133574354D01*
X147074354Y-133699853D01*
X146926784Y-133798456D01*
X146762812Y-133866376D01*
X146613512Y-133896073D01*
X146588742Y-133901000D01*
X146411258Y-133901000D01*
X146386488Y-133896073D01*
X146237188Y-133866376D01*
X146073216Y-133798456D01*
X145925646Y-133699853D01*
X145800147Y-133574354D01*
X145701544Y-133426784D01*
X145633624Y-133262812D01*
X145599000Y-133088741D01*
X145599000Y-132911259D01*
X145633624Y-132737188D01*
X145701544Y-132573216D01*
X145800147Y-132425646D01*
X145925646Y-132300147D01*
X146073216Y-132201544D01*
X146237188Y-132133624D01*
X146386488Y-132103927D01*
X146411258Y-132099000D01*
X146588742Y-132099000D01*
X146613512Y-132103927D01*
G37*
G36*
X118613512Y-131273927D02*
G01*
X118762812Y-131303624D01*
X118926784Y-131371544D01*
X119074354Y-131470147D01*
X119199853Y-131595646D01*
X119298456Y-131743216D01*
X119366376Y-131907188D01*
X119401000Y-132081259D01*
X119401000Y-132258741D01*
X119366376Y-132432812D01*
X119298456Y-132596784D01*
X119199853Y-132744354D01*
X119074354Y-132869853D01*
X118926784Y-132968456D01*
X118762812Y-133036376D01*
X118613512Y-133066073D01*
X118588742Y-133071000D01*
X118411258Y-133071000D01*
X118386488Y-133066073D01*
X118237188Y-133036376D01*
X118073216Y-132968456D01*
X117925646Y-132869853D01*
X117800147Y-132744354D01*
X117701544Y-132596784D01*
X117633624Y-132432812D01*
X117599000Y-132258741D01*
X117599000Y-132081259D01*
X117633624Y-131907188D01*
X117701544Y-131743216D01*
X117800147Y-131595646D01*
X117925646Y-131470147D01*
X118073216Y-131371544D01*
X118237188Y-131303624D01*
X118386488Y-131273927D01*
X118411258Y-131269000D01*
X118588742Y-131269000D01*
X118613512Y-131273927D01*
G37*
G36*
X147401000Y-131361000D02*
G01*
X145599000Y-131361000D01*
X145599000Y-129559000D01*
X147401000Y-129559000D01*
X147401000Y-131361000D01*
G37*
G36*
X118613512Y-128733927D02*
G01*
X118762812Y-128763624D01*
X118926784Y-128831544D01*
X119074354Y-128930147D01*
X119199853Y-129055646D01*
X119298456Y-129203216D01*
X119366376Y-129367188D01*
X119401000Y-129541259D01*
X119401000Y-129718741D01*
X119366376Y-129892812D01*
X119298456Y-130056784D01*
X119199853Y-130204354D01*
X119074354Y-130329853D01*
X118926784Y-130428456D01*
X118762812Y-130496376D01*
X118613512Y-130526073D01*
X118588742Y-130531000D01*
X118411258Y-130531000D01*
X118386488Y-130526073D01*
X118237188Y-130496376D01*
X118073216Y-130428456D01*
X117925646Y-130329853D01*
X117800147Y-130204354D01*
X117701544Y-130056784D01*
X117633624Y-129892812D01*
X117599000Y-129718741D01*
X117599000Y-129541259D01*
X117633624Y-129367188D01*
X117701544Y-129203216D01*
X117800147Y-129055646D01*
X117925646Y-128930147D01*
X118073216Y-128831544D01*
X118237188Y-128763624D01*
X118386488Y-128733927D01*
X118411258Y-128729000D01*
X118588742Y-128729000D01*
X118613512Y-128733927D01*
G37*
G36*
X118613512Y-126193927D02*
G01*
X118762812Y-126223624D01*
X118926784Y-126291544D01*
X119074354Y-126390147D01*
X119199853Y-126515646D01*
X119298456Y-126663216D01*
X119366376Y-126827188D01*
X119401000Y-127001259D01*
X119401000Y-127178741D01*
X119366376Y-127352812D01*
X119298456Y-127516784D01*
X119199853Y-127664354D01*
X119074354Y-127789853D01*
X118926784Y-127888456D01*
X118762812Y-127956376D01*
X118613512Y-127986073D01*
X118588742Y-127991000D01*
X118411258Y-127991000D01*
X118386488Y-127986073D01*
X118237188Y-127956376D01*
X118073216Y-127888456D01*
X117925646Y-127789853D01*
X117800147Y-127664354D01*
X117701544Y-127516784D01*
X117633624Y-127352812D01*
X117599000Y-127178741D01*
X117599000Y-127001259D01*
X117633624Y-126827188D01*
X117701544Y-126663216D01*
X117800147Y-126515646D01*
X117925646Y-126390147D01*
X118073216Y-126291544D01*
X118237188Y-126223624D01*
X118386488Y-126193927D01*
X118411258Y-126189000D01*
X118588742Y-126189000D01*
X118613512Y-126193927D01*
G37*
G36*
X118613512Y-123653927D02*
G01*
X118762812Y-123683624D01*
X118926784Y-123751544D01*
X119074354Y-123850147D01*
X119199853Y-123975646D01*
X119298456Y-124123216D01*
X119366376Y-124287188D01*
X119401000Y-124461259D01*
X119401000Y-124638741D01*
X119366376Y-124812812D01*
X119298456Y-124976784D01*
X119199853Y-125124354D01*
X119074354Y-125249853D01*
X118926784Y-125348456D01*
X118762812Y-125416376D01*
X118613512Y-125446073D01*
X118588742Y-125451000D01*
X118411258Y-125451000D01*
X118386488Y-125446073D01*
X118237188Y-125416376D01*
X118073216Y-125348456D01*
X117925646Y-125249853D01*
X117800147Y-125124354D01*
X117701544Y-124976784D01*
X117633624Y-124812812D01*
X117599000Y-124638741D01*
X117599000Y-124461259D01*
X117633624Y-124287188D01*
X117701544Y-124123216D01*
X117800147Y-123975646D01*
X117925646Y-123850147D01*
X118073216Y-123751544D01*
X118237188Y-123683624D01*
X118386488Y-123653927D01*
X118411258Y-123649000D01*
X118588742Y-123649000D01*
X118613512Y-123653927D01*
G37*
G36*
X118613512Y-121113927D02*
G01*
X118762812Y-121143624D01*
X118926784Y-121211544D01*
X119074354Y-121310147D01*
X119199853Y-121435646D01*
X119298456Y-121583216D01*
X119366376Y-121747188D01*
X119401000Y-121921259D01*
X119401000Y-122098741D01*
X119366376Y-122272812D01*
X119298456Y-122436784D01*
X119199853Y-122584354D01*
X119074354Y-122709853D01*
X118926784Y-122808456D01*
X118762812Y-122876376D01*
X118613512Y-122906073D01*
X118588742Y-122911000D01*
X118411258Y-122911000D01*
X118386488Y-122906073D01*
X118237188Y-122876376D01*
X118073216Y-122808456D01*
X117925646Y-122709853D01*
X117800147Y-122584354D01*
X117701544Y-122436784D01*
X117633624Y-122272812D01*
X117599000Y-122098741D01*
X117599000Y-121921259D01*
X117633624Y-121747188D01*
X117701544Y-121583216D01*
X117800147Y-121435646D01*
X117925646Y-121310147D01*
X118073216Y-121211544D01*
X118237188Y-121143624D01*
X118386488Y-121113927D01*
X118411258Y-121109000D01*
X118588742Y-121109000D01*
X118613512Y-121113927D01*
G37*
G36*
X118901000Y-117901000D02*
G01*
X117099000Y-117901000D01*
X117099000Y-116099000D01*
X118901000Y-116099000D01*
X118901000Y-117901000D01*
G37*
G36*
X118113512Y-113563927D02*
G01*
X118262812Y-113593624D01*
X118426784Y-113661544D01*
X118574354Y-113760147D01*
X118699853Y-113885646D01*
X118798456Y-114033216D01*
X118866376Y-114197188D01*
X118901000Y-114371259D01*
X118901000Y-114548741D01*
X118866376Y-114722812D01*
X118798456Y-114886784D01*
X118699853Y-115034354D01*
X118574354Y-115159853D01*
X118426784Y-115258456D01*
X118262812Y-115326376D01*
X118113512Y-115356073D01*
X118088742Y-115361000D01*
X117911258Y-115361000D01*
X117886488Y-115356073D01*
X117737188Y-115326376D01*
X117573216Y-115258456D01*
X117425646Y-115159853D01*
X117300147Y-115034354D01*
X117201544Y-114886784D01*
X117133624Y-114722812D01*
X117099000Y-114548741D01*
X117099000Y-114371259D01*
X117133624Y-114197188D01*
X117201544Y-114033216D01*
X117300147Y-113885646D01*
X117425646Y-113760147D01*
X117573216Y-113661544D01*
X117737188Y-113593624D01*
X117886488Y-113563927D01*
X117911258Y-113559000D01*
X118088742Y-113559000D01*
X118113512Y-113563927D01*
G37*
G36*
X118113512Y-111023927D02*
G01*
X118262812Y-111053624D01*
X118426784Y-111121544D01*
X118574354Y-111220147D01*
X118699853Y-111345646D01*
X118798456Y-111493216D01*
X118866376Y-111657188D01*
X118901000Y-111831259D01*
X118901000Y-112008741D01*
X118866376Y-112182812D01*
X118798456Y-112346784D01*
X118699853Y-112494354D01*
X118574354Y-112619853D01*
X118426784Y-112718456D01*
X118262812Y-112786376D01*
X118113512Y-112816073D01*
X118088742Y-112821000D01*
X117911258Y-112821000D01*
X117886488Y-112816073D01*
X117737188Y-112786376D01*
X117573216Y-112718456D01*
X117425646Y-112619853D01*
X117300147Y-112494354D01*
X117201544Y-112346784D01*
X117133624Y-112182812D01*
X117099000Y-112008741D01*
X117099000Y-111831259D01*
X117133624Y-111657188D01*
X117201544Y-111493216D01*
X117300147Y-111345646D01*
X117425646Y-111220147D01*
X117573216Y-111121544D01*
X117737188Y-111053624D01*
X117886488Y-111023927D01*
X117911258Y-111019000D01*
X118088742Y-111019000D01*
X118113512Y-111023927D01*
G37*
G36*
X118113512Y-108483927D02*
G01*
X118262812Y-108513624D01*
X118426784Y-108581544D01*
X118574354Y-108680147D01*
X118699853Y-108805646D01*
X118798456Y-108953216D01*
X118866376Y-109117188D01*
X118901000Y-109291259D01*
X118901000Y-109468741D01*
X118866376Y-109642812D01*
X118798456Y-109806784D01*
X118699853Y-109954354D01*
X118574354Y-110079853D01*
X118426784Y-110178456D01*
X118262812Y-110246376D01*
X118113512Y-110276073D01*
X118088742Y-110281000D01*
X117911258Y-110281000D01*
X117886488Y-110276073D01*
X117737188Y-110246376D01*
X117573216Y-110178456D01*
X117425646Y-110079853D01*
X117300147Y-109954354D01*
X117201544Y-109806784D01*
X117133624Y-109642812D01*
X117099000Y-109468741D01*
X117099000Y-109291259D01*
X117133624Y-109117188D01*
X117201544Y-108953216D01*
X117300147Y-108805646D01*
X117425646Y-108680147D01*
X117573216Y-108581544D01*
X117737188Y-108513624D01*
X117886488Y-108483927D01*
X117911258Y-108479000D01*
X118088742Y-108479000D01*
X118113512Y-108483927D01*
G37*
G36*
X118113512Y-105943927D02*
G01*
X118262812Y-105973624D01*
X118426784Y-106041544D01*
X118574354Y-106140147D01*
X118699853Y-106265646D01*
X118798456Y-106413216D01*
X118866376Y-106577188D01*
X118901000Y-106751259D01*
X118901000Y-106928741D01*
X118866376Y-107102812D01*
X118798456Y-107266784D01*
X118699853Y-107414354D01*
X118574354Y-107539853D01*
X118426784Y-107638456D01*
X118262812Y-107706376D01*
X118113512Y-107736073D01*
X118088742Y-107741000D01*
X117911258Y-107741000D01*
X117886488Y-107736073D01*
X117737188Y-107706376D01*
X117573216Y-107638456D01*
X117425646Y-107539853D01*
X117300147Y-107414354D01*
X117201544Y-107266784D01*
X117133624Y-107102812D01*
X117099000Y-106928741D01*
X117099000Y-106751259D01*
X117133624Y-106577188D01*
X117201544Y-106413216D01*
X117300147Y-106265646D01*
X117425646Y-106140147D01*
X117573216Y-106041544D01*
X117737188Y-105973624D01*
X117886488Y-105943927D01*
X117911258Y-105939000D01*
X118088742Y-105939000D01*
X118113512Y-105943927D01*
G37*
G36*
X118113512Y-103403927D02*
G01*
X118262812Y-103433624D01*
X118426784Y-103501544D01*
X118574354Y-103600147D01*
X118699853Y-103725646D01*
X118798456Y-103873216D01*
X118866376Y-104037188D01*
X118901000Y-104211259D01*
X118901000Y-104388741D01*
X118866376Y-104562812D01*
X118798456Y-104726784D01*
X118699853Y-104874354D01*
X118574354Y-104999853D01*
X118426784Y-105098456D01*
X118262812Y-105166376D01*
X118113512Y-105196073D01*
X118088742Y-105201000D01*
X117911258Y-105201000D01*
X117886488Y-105196073D01*
X117737188Y-105166376D01*
X117573216Y-105098456D01*
X117425646Y-104999853D01*
X117300147Y-104874354D01*
X117201544Y-104726784D01*
X117133624Y-104562812D01*
X117099000Y-104388741D01*
X117099000Y-104211259D01*
X117133624Y-104037188D01*
X117201544Y-103873216D01*
X117300147Y-103725646D01*
X117425646Y-103600147D01*
X117573216Y-103501544D01*
X117737188Y-103433624D01*
X117886488Y-103403927D01*
X117911258Y-103399000D01*
X118088742Y-103399000D01*
X118113512Y-103403927D01*
G37*
G36*
X118113512Y-100863927D02*
G01*
X118262812Y-100893624D01*
X118426784Y-100961544D01*
X118574354Y-101060147D01*
X118699853Y-101185646D01*
X118798456Y-101333216D01*
X118866376Y-101497188D01*
X118901000Y-101671259D01*
X118901000Y-101848741D01*
X118866376Y-102022812D01*
X118798456Y-102186784D01*
X118699853Y-102334354D01*
X118574354Y-102459853D01*
X118426784Y-102558456D01*
X118262812Y-102626376D01*
X118113512Y-102656073D01*
X118088742Y-102661000D01*
X117911258Y-102661000D01*
X117886488Y-102656073D01*
X117737188Y-102626376D01*
X117573216Y-102558456D01*
X117425646Y-102459853D01*
X117300147Y-102334354D01*
X117201544Y-102186784D01*
X117133624Y-102022812D01*
X117099000Y-101848741D01*
X117099000Y-101671259D01*
X117133624Y-101497188D01*
X117201544Y-101333216D01*
X117300147Y-101185646D01*
X117425646Y-101060147D01*
X117573216Y-100961544D01*
X117737188Y-100893624D01*
X117886488Y-100863927D01*
X117911258Y-100859000D01*
X118088742Y-100859000D01*
X118113512Y-100863927D01*
G37*
G36*
X118113512Y-98323927D02*
G01*
X118262812Y-98353624D01*
X118426784Y-98421544D01*
X118574354Y-98520147D01*
X118699853Y-98645646D01*
X118798456Y-98793216D01*
X118866376Y-98957188D01*
X118901000Y-99131259D01*
X118901000Y-99308741D01*
X118866376Y-99482812D01*
X118798456Y-99646784D01*
X118699853Y-99794354D01*
X118574354Y-99919853D01*
X118426784Y-100018456D01*
X118262812Y-100086376D01*
X118113512Y-100116073D01*
X118088742Y-100121000D01*
X117911258Y-100121000D01*
X117886488Y-100116073D01*
X117737188Y-100086376D01*
X117573216Y-100018456D01*
X117425646Y-99919853D01*
X117300147Y-99794354D01*
X117201544Y-99646784D01*
X117133624Y-99482812D01*
X117099000Y-99308741D01*
X117099000Y-99131259D01*
X117133624Y-98957188D01*
X117201544Y-98793216D01*
X117300147Y-98645646D01*
X117425646Y-98520147D01*
X117573216Y-98421544D01*
X117737188Y-98353624D01*
X117886488Y-98323927D01*
X117911258Y-98319000D01*
X118088742Y-98319000D01*
X118113512Y-98323927D01*
G37*
G36*
X162748228Y-85681703D02*
G01*
X162903100Y-85745853D01*
X163042481Y-85838985D01*
X163161015Y-85957519D01*
X163254147Y-86096900D01*
X163318297Y-86251772D01*
X163351000Y-86416184D01*
X163351000Y-86583816D01*
X163318297Y-86748228D01*
X163254147Y-86903100D01*
X163161015Y-87042481D01*
X163042481Y-87161015D01*
X162903100Y-87254147D01*
X162748228Y-87318297D01*
X162583816Y-87351000D01*
X162416184Y-87351000D01*
X162251772Y-87318297D01*
X162096900Y-87254147D01*
X161957519Y-87161015D01*
X161838985Y-87042481D01*
X161745853Y-86903100D01*
X161681703Y-86748228D01*
X161649000Y-86583816D01*
X161649000Y-86416184D01*
X161681703Y-86251772D01*
X161745853Y-86096900D01*
X161838985Y-85957519D01*
X161957519Y-85838985D01*
X162096900Y-85745853D01*
X162251772Y-85681703D01*
X162416184Y-85649000D01*
X162583816Y-85649000D01*
X162748228Y-85681703D01*
G37*
G36*
X171748228Y-85681703D02*
G01*
X171903100Y-85745853D01*
X172042481Y-85838985D01*
X172161015Y-85957519D01*
X172254147Y-86096900D01*
X172318297Y-86251772D01*
X172351000Y-86416184D01*
X172351000Y-86583816D01*
X172318297Y-86748228D01*
X172254147Y-86903100D01*
X172161015Y-87042481D01*
X172042481Y-87161015D01*
X171903100Y-87254147D01*
X171748228Y-87318297D01*
X171583816Y-87351000D01*
X171416184Y-87351000D01*
X171251772Y-87318297D01*
X171096900Y-87254147D01*
X170957519Y-87161015D01*
X170838985Y-87042481D01*
X170745853Y-86903100D01*
X170681703Y-86748228D01*
X170649000Y-86583816D01*
X170649000Y-86416184D01*
X170681703Y-86251772D01*
X170745853Y-86096900D01*
X170838985Y-85957519D01*
X170957519Y-85838985D01*
X171096900Y-85745853D01*
X171251772Y-85681703D01*
X171416184Y-85649000D01*
X171583816Y-85649000D01*
X171748228Y-85681703D01*
G37*
G36*
X185394072Y-83200918D02*
G01*
X185508292Y-83248229D01*
X185639939Y-83302759D01*
X185861212Y-83450610D01*
X186049390Y-83638788D01*
X186197241Y-83860061D01*
X186299082Y-84105928D01*
X186351000Y-84366938D01*
X186351000Y-84633062D01*
X186299082Y-84894072D01*
X186197241Y-85139939D01*
X186049390Y-85361212D01*
X185861212Y-85549390D01*
X185639939Y-85697241D01*
X185639938Y-85697242D01*
X185639937Y-85697242D01*
X185394072Y-85799082D01*
X185133063Y-85851000D01*
X184866937Y-85851000D01*
X184605928Y-85799082D01*
X184360063Y-85697242D01*
X184360062Y-85697242D01*
X184360061Y-85697241D01*
X184138788Y-85549390D01*
X183950610Y-85361212D01*
X183802759Y-85139939D01*
X183700918Y-84894072D01*
X183649000Y-84633062D01*
X183649000Y-84366938D01*
X183700918Y-84105928D01*
X183802759Y-83860061D01*
X183950610Y-83638788D01*
X184138788Y-83450610D01*
X184360061Y-83302759D01*
X184491709Y-83248229D01*
X184605928Y-83200918D01*
X184866937Y-83149000D01*
X185133063Y-83149000D01*
X185394072Y-83200918D01*
G37*
G36*
X163351000Y-84851000D02*
G01*
X161649000Y-84851000D01*
X161649000Y-83149000D01*
X163351000Y-83149000D01*
X163351000Y-84851000D01*
G37*
G36*
X172351000Y-84851000D02*
G01*
X170649000Y-84851000D01*
X170649000Y-83149000D01*
X172351000Y-83149000D01*
X172351000Y-84851000D01*
G37*
G36*
X197248228Y-82181703D02*
G01*
X197403100Y-82245853D01*
X197542481Y-82338985D01*
X197661015Y-82457519D01*
X197754147Y-82596900D01*
X197818297Y-82751772D01*
X197851000Y-82916184D01*
X197851000Y-83083816D01*
X197818297Y-83248228D01*
X197754147Y-83403100D01*
X197661015Y-83542481D01*
X197542481Y-83661015D01*
X197403100Y-83754147D01*
X197248228Y-83818297D01*
X197083816Y-83851000D01*
X196916184Y-83851000D01*
X196751772Y-83818297D01*
X196596900Y-83754147D01*
X196457519Y-83661015D01*
X196338985Y-83542481D01*
X196245853Y-83403100D01*
X196181703Y-83248228D01*
X196149000Y-83083816D01*
X196149000Y-82916184D01*
X196181703Y-82751772D01*
X196245853Y-82596900D01*
X196338985Y-82457519D01*
X196457519Y-82338985D01*
X196596900Y-82245853D01*
X196751772Y-82181703D01*
X196916184Y-82149000D01*
X197083816Y-82149000D01*
X197248228Y-82181703D01*
G37*
G36*
X197248228Y-79681703D02*
G01*
X197403100Y-79745853D01*
X197542481Y-79838985D01*
X197661015Y-79957519D01*
X197754147Y-80096900D01*
X197818297Y-80251772D01*
X197851000Y-80416184D01*
X197851000Y-80583816D01*
X197818297Y-80748228D01*
X197754147Y-80903100D01*
X197661015Y-81042481D01*
X197542481Y-81161015D01*
X197403100Y-81254147D01*
X197248228Y-81318297D01*
X197083816Y-81351000D01*
X196916184Y-81351000D01*
X196751772Y-81318297D01*
X196596900Y-81254147D01*
X196457519Y-81161015D01*
X196338985Y-81042481D01*
X196245853Y-80903100D01*
X196181703Y-80748228D01*
X196149000Y-80583816D01*
X196149000Y-80416184D01*
X196181703Y-80251772D01*
X196245853Y-80096900D01*
X196338985Y-79957519D01*
X196457519Y-79838985D01*
X196596900Y-79745853D01*
X196751772Y-79681703D01*
X196916184Y-79649000D01*
X197083816Y-79649000D01*
X197248228Y-79681703D01*
G37*
G36*
X185394072Y-78200918D02*
G01*
X185639939Y-78302759D01*
X185751328Y-78377187D01*
X185861211Y-78450609D01*
X186049391Y-78638789D01*
X186197242Y-78860063D01*
X186299082Y-79105928D01*
X186351000Y-79366937D01*
X186351000Y-79633063D01*
X186299082Y-79894072D01*
X186197241Y-80139939D01*
X186049390Y-80361212D01*
X185861212Y-80549390D01*
X185639939Y-80697241D01*
X185639938Y-80697242D01*
X185639937Y-80697242D01*
X185394072Y-80799082D01*
X185133063Y-80851000D01*
X184866937Y-80851000D01*
X184605928Y-80799082D01*
X184360063Y-80697242D01*
X184360062Y-80697242D01*
X184360061Y-80697241D01*
X184138788Y-80549390D01*
X183950610Y-80361212D01*
X183802759Y-80139939D01*
X183700918Y-79894072D01*
X183649000Y-79633063D01*
X183649000Y-79366937D01*
X183700918Y-79105928D01*
X183802758Y-78860063D01*
X183950609Y-78638789D01*
X184138789Y-78450609D01*
X184248672Y-78377187D01*
X184360061Y-78302759D01*
X184605928Y-78200918D01*
X184866937Y-78149000D01*
X185133063Y-78149000D01*
X185394072Y-78200918D01*
G37*
G36*
X162998228Y-77681703D02*
G01*
X163153100Y-77745853D01*
X163292481Y-77838985D01*
X163411015Y-77957519D01*
X163504147Y-78096900D01*
X163568297Y-78251772D01*
X163601000Y-78416184D01*
X163601000Y-78583816D01*
X163568297Y-78748228D01*
X163504147Y-78903100D01*
X163411015Y-79042481D01*
X163292481Y-79161015D01*
X163153100Y-79254147D01*
X162998228Y-79318297D01*
X162833816Y-79351000D01*
X162666184Y-79351000D01*
X162501772Y-79318297D01*
X162346900Y-79254147D01*
X162207519Y-79161015D01*
X162088985Y-79042481D01*
X161995853Y-78903100D01*
X161931703Y-78748228D01*
X161899000Y-78583816D01*
X161899000Y-78416184D01*
X161931703Y-78251772D01*
X161995853Y-78096900D01*
X162088985Y-77957519D01*
X162207519Y-77838985D01*
X162346900Y-77745853D01*
X162501772Y-77681703D01*
X162666184Y-77649000D01*
X162833816Y-77649000D01*
X162998228Y-77681703D01*
G37*
G36*
X171498228Y-77681703D02*
G01*
X171653100Y-77745853D01*
X171792481Y-77838985D01*
X171911015Y-77957519D01*
X172004147Y-78096900D01*
X172068297Y-78251772D01*
X172101000Y-78416184D01*
X172101000Y-78583816D01*
X172068297Y-78748228D01*
X172004147Y-78903100D01*
X171911015Y-79042481D01*
X171792481Y-79161015D01*
X171653100Y-79254147D01*
X171498228Y-79318297D01*
X171333816Y-79351000D01*
X171166184Y-79351000D01*
X171001772Y-79318297D01*
X170846900Y-79254147D01*
X170707519Y-79161015D01*
X170588985Y-79042481D01*
X170495853Y-78903100D01*
X170431703Y-78748228D01*
X170399000Y-78583816D01*
X170399000Y-78416184D01*
X170431703Y-78251772D01*
X170495853Y-78096900D01*
X170588985Y-77957519D01*
X170707519Y-77838985D01*
X170846900Y-77745853D01*
X171001772Y-77681703D01*
X171166184Y-77649000D01*
X171333816Y-77649000D01*
X171498228Y-77681703D01*
G37*
G36*
X172101000Y-76851000D02*
G01*
X170399000Y-76851000D01*
X170399000Y-75149000D01*
X172101000Y-75149000D01*
X172101000Y-76851000D01*
G37*
G36*
X163601000Y-76851000D02*
G01*
X161899000Y-76851000D01*
X161899000Y-75149000D01*
X163601000Y-75149000D01*
X163601000Y-76851000D01*
G37*
G36*
X118401000Y-76681000D02*
G01*
X116599000Y-76681000D01*
X116599000Y-74879000D01*
X118401000Y-74879000D01*
X118401000Y-76681000D01*
G37*
G36*
X117613512Y-72343927D02*
G01*
X117762812Y-72373624D01*
X117926784Y-72441544D01*
X118074354Y-72540147D01*
X118199853Y-72665646D01*
X118298456Y-72813216D01*
X118366376Y-72977188D01*
X118401000Y-73151259D01*
X118401000Y-73328741D01*
X118366376Y-73502812D01*
X118298456Y-73666784D01*
X118199853Y-73814354D01*
X118074354Y-73939853D01*
X117926784Y-74038456D01*
X117762812Y-74106376D01*
X117613512Y-74136073D01*
X117588742Y-74141000D01*
X117411258Y-74141000D01*
X117386488Y-74136073D01*
X117237188Y-74106376D01*
X117073216Y-74038456D01*
X116925646Y-73939853D01*
X116800147Y-73814354D01*
X116701544Y-73666784D01*
X116633624Y-73502812D01*
X116599000Y-73328741D01*
X116599000Y-73151259D01*
X116633624Y-72977188D01*
X116701544Y-72813216D01*
X116800147Y-72665646D01*
X116925646Y-72540147D01*
X117073216Y-72441544D01*
X117237188Y-72373624D01*
X117386488Y-72343927D01*
X117411258Y-72339000D01*
X117588742Y-72339000D01*
X117613512Y-72343927D01*
G37*
G36*
X197866720Y-70713520D02*
G01*
X198055881Y-70770901D01*
X198230212Y-70864083D01*
X198383015Y-70989485D01*
X198508417Y-71142288D01*
X198540828Y-71202925D01*
X198601598Y-71316617D01*
X198601599Y-71316620D01*
X198658980Y-71505781D01*
X198673500Y-71653207D01*
X198673500Y-71846794D01*
X198658980Y-71994220D01*
X198601599Y-72183381D01*
X198508417Y-72357712D01*
X198383015Y-72510515D01*
X198230212Y-72635917D01*
X198174591Y-72665647D01*
X198055883Y-72729098D01*
X198055880Y-72729099D01*
X197866719Y-72786480D01*
X197670000Y-72805855D01*
X197473280Y-72786480D01*
X197284119Y-72729099D01*
X197109788Y-72635917D01*
X196956985Y-72510515D01*
X196831583Y-72357712D01*
X196787818Y-72275833D01*
X196738402Y-72183383D01*
X196738401Y-72183380D01*
X196681020Y-71994219D01*
X196666500Y-71846793D01*
X196666500Y-71653206D01*
X196681020Y-71505780D01*
X196738401Y-71316619D01*
X196831583Y-71142288D01*
X196956985Y-70989485D01*
X197109788Y-70864083D01*
X197284120Y-70770901D01*
X197473281Y-70713520D01*
X197670000Y-70694145D01*
X197866720Y-70713520D01*
G37*
G36*
X200406720Y-70713520D02*
G01*
X200595881Y-70770901D01*
X200770212Y-70864083D01*
X200923015Y-70989485D01*
X201048417Y-71142288D01*
X201080828Y-71202925D01*
X201141598Y-71316617D01*
X201141599Y-71316620D01*
X201198980Y-71505781D01*
X201213500Y-71653207D01*
X201213500Y-71846794D01*
X201198980Y-71994220D01*
X201141599Y-72183381D01*
X201048417Y-72357712D01*
X200923015Y-72510515D01*
X200770212Y-72635917D01*
X200714591Y-72665647D01*
X200595883Y-72729098D01*
X200595880Y-72729099D01*
X200406719Y-72786480D01*
X200210000Y-72805855D01*
X200013280Y-72786480D01*
X199824119Y-72729099D01*
X199649788Y-72635917D01*
X199496985Y-72510515D01*
X199371583Y-72357712D01*
X199327818Y-72275833D01*
X199278402Y-72183383D01*
X199278401Y-72183380D01*
X199221020Y-71994219D01*
X199206500Y-71846793D01*
X199206500Y-71653206D01*
X199221020Y-71505780D01*
X199278401Y-71316619D01*
X199371583Y-71142288D01*
X199496985Y-70989485D01*
X199649788Y-70864083D01*
X199824120Y-70770901D01*
X200013281Y-70713520D01*
X200210000Y-70694145D01*
X200406720Y-70713520D01*
G37*
G36*
X185656720Y-70713520D02*
G01*
X185845881Y-70770901D01*
X186020212Y-70864083D01*
X186173015Y-70989485D01*
X186298417Y-71142288D01*
X186330828Y-71202925D01*
X186391598Y-71316617D01*
X186391599Y-71316620D01*
X186448980Y-71505781D01*
X186463500Y-71653207D01*
X186463500Y-71846794D01*
X186448980Y-71994220D01*
X186391599Y-72183381D01*
X186298417Y-72357712D01*
X186173015Y-72510515D01*
X186020212Y-72635917D01*
X185964591Y-72665647D01*
X185845883Y-72729098D01*
X185845880Y-72729099D01*
X185656719Y-72786480D01*
X185460000Y-72805855D01*
X185263280Y-72786480D01*
X185074119Y-72729099D01*
X184899788Y-72635917D01*
X184746985Y-72510515D01*
X184621583Y-72357712D01*
X184577818Y-72275833D01*
X184528402Y-72183383D01*
X184528401Y-72183380D01*
X184471020Y-71994219D01*
X184456500Y-71846793D01*
X184456500Y-71653206D01*
X184471020Y-71505780D01*
X184528401Y-71316619D01*
X184621583Y-71142288D01*
X184746985Y-70989485D01*
X184899788Y-70864083D01*
X185074120Y-70770901D01*
X185263281Y-70713520D01*
X185460000Y-70694145D01*
X185656720Y-70713520D01*
G37*
G36*
X183116720Y-70713520D02*
G01*
X183305881Y-70770901D01*
X183480212Y-70864083D01*
X183633015Y-70989485D01*
X183758417Y-71142288D01*
X183790828Y-71202925D01*
X183851598Y-71316617D01*
X183851599Y-71316620D01*
X183908980Y-71505781D01*
X183923500Y-71653207D01*
X183923500Y-71846794D01*
X183908980Y-71994220D01*
X183851599Y-72183381D01*
X183758417Y-72357712D01*
X183633015Y-72510515D01*
X183480212Y-72635917D01*
X183424591Y-72665647D01*
X183305883Y-72729098D01*
X183305880Y-72729099D01*
X183116719Y-72786480D01*
X182920000Y-72805855D01*
X182723280Y-72786480D01*
X182534119Y-72729099D01*
X182359788Y-72635917D01*
X182206985Y-72510515D01*
X182081583Y-72357712D01*
X182037818Y-72275833D01*
X181988402Y-72183383D01*
X181988401Y-72183380D01*
X181931020Y-71994219D01*
X181916500Y-71846793D01*
X181916500Y-71653206D01*
X181931020Y-71505780D01*
X181988401Y-71316619D01*
X182081583Y-71142288D01*
X182206985Y-70989485D01*
X182359788Y-70864083D01*
X182534120Y-70770901D01*
X182723281Y-70713520D01*
X182920000Y-70694145D01*
X183116720Y-70713520D01*
G37*
G36*
X189003500Y-72801000D02*
G01*
X186996500Y-72801000D01*
X186996500Y-70699000D01*
X189003500Y-70699000D01*
X189003500Y-72801000D01*
G37*
G36*
X203753500Y-72801000D02*
G01*
X201746500Y-72801000D01*
X201746500Y-70699000D01*
X203753500Y-70699000D01*
X203753500Y-72801000D01*
G37*
G36*
X155851000Y-71851000D02*
G01*
X154149000Y-71851000D01*
X154149000Y-70149000D01*
X155851000Y-70149000D01*
X155851000Y-71851000D01*
G37*
G36*
X163601000Y-71851000D02*
G01*
X161899000Y-71851000D01*
X161899000Y-70149000D01*
X163601000Y-70149000D01*
X163601000Y-71851000D01*
G37*
G36*
X171248228Y-70181703D02*
G01*
X171403100Y-70245853D01*
X171542481Y-70338985D01*
X171661015Y-70457519D01*
X171754147Y-70596900D01*
X171818297Y-70751772D01*
X171851000Y-70916184D01*
X171851000Y-71083816D01*
X171818297Y-71248228D01*
X171754147Y-71403100D01*
X171661015Y-71542481D01*
X171542481Y-71661015D01*
X171403100Y-71754147D01*
X171248228Y-71818297D01*
X171083816Y-71851000D01*
X170916184Y-71851000D01*
X170751772Y-71818297D01*
X170596900Y-71754147D01*
X170457519Y-71661015D01*
X170338985Y-71542481D01*
X170245853Y-71403100D01*
X170181703Y-71248228D01*
X170149000Y-71083816D01*
X170149000Y-70916184D01*
X170181703Y-70751772D01*
X170245853Y-70596900D01*
X170338985Y-70457519D01*
X170457519Y-70338985D01*
X170596900Y-70245853D01*
X170751772Y-70181703D01*
X170916184Y-70149000D01*
X171083816Y-70149000D01*
X171248228Y-70181703D01*
G37*
G36*
X117613512Y-69803927D02*
G01*
X117762812Y-69833624D01*
X117926784Y-69901544D01*
X118074354Y-70000147D01*
X118199853Y-70125646D01*
X118298456Y-70273216D01*
X118366376Y-70437188D01*
X118396073Y-70586488D01*
X118398145Y-70596903D01*
X118401000Y-70611259D01*
X118401000Y-70788741D01*
X118366376Y-70962812D01*
X118298456Y-71126784D01*
X118199853Y-71274354D01*
X118074354Y-71399853D01*
X117926784Y-71498456D01*
X117762812Y-71566376D01*
X117613512Y-71596073D01*
X117588742Y-71601000D01*
X117411258Y-71601000D01*
X117386488Y-71596073D01*
X117237188Y-71566376D01*
X117073216Y-71498456D01*
X116925646Y-71399853D01*
X116800147Y-71274354D01*
X116701544Y-71126784D01*
X116633624Y-70962812D01*
X116599000Y-70788741D01*
X116599000Y-70611259D01*
X116601856Y-70596903D01*
X116603927Y-70586488D01*
X116633624Y-70437188D01*
X116701544Y-70273216D01*
X116800147Y-70125646D01*
X116925646Y-70000147D01*
X117073216Y-69901544D01*
X117237188Y-69833624D01*
X117386488Y-69803927D01*
X117411258Y-69799000D01*
X117588742Y-69799000D01*
X117613512Y-69803927D01*
G37*
G36*
X141364903Y-68797075D02*
G01*
X141516461Y-68859852D01*
X141592571Y-68891378D01*
X141797466Y-69028285D01*
X141971715Y-69202534D01*
X142070917Y-69351000D01*
X142108623Y-69407431D01*
X142202925Y-69635097D01*
X142251000Y-69876786D01*
X142251000Y-70123214D01*
X142221163Y-70273216D01*
X142202925Y-70364903D01*
X142108622Y-70592571D01*
X141971715Y-70797466D01*
X141797466Y-70971715D01*
X141592571Y-71108622D01*
X141592570Y-71108623D01*
X141592569Y-71108623D01*
X141364903Y-71202925D01*
X141123214Y-71251000D01*
X140876786Y-71251000D01*
X140635097Y-71202925D01*
X140407431Y-71108623D01*
X140407430Y-71108623D01*
X140407429Y-71108622D01*
X140202534Y-70971715D01*
X140028285Y-70797466D01*
X139891378Y-70592571D01*
X139797075Y-70364903D01*
X139778837Y-70273216D01*
X139749000Y-70123214D01*
X139749000Y-69876786D01*
X139797075Y-69635097D01*
X139891377Y-69407431D01*
X139929083Y-69351000D01*
X140028285Y-69202534D01*
X140202534Y-69028285D01*
X140407429Y-68891378D01*
X140483540Y-68859852D01*
X140635097Y-68797075D01*
X140876786Y-68749000D01*
X141123214Y-68749000D01*
X141364903Y-68797075D01*
G37*
G36*
X162998228Y-67681703D02*
G01*
X163153100Y-67745853D01*
X163292481Y-67838985D01*
X163411015Y-67957519D01*
X163504147Y-68096900D01*
X163568297Y-68251772D01*
X163601000Y-68416184D01*
X163601000Y-68583816D01*
X163568297Y-68748228D01*
X163504147Y-68903100D01*
X163411015Y-69042481D01*
X163292481Y-69161015D01*
X163153100Y-69254147D01*
X162998228Y-69318297D01*
X162833816Y-69351000D01*
X162666184Y-69351000D01*
X162501772Y-69318297D01*
X162346900Y-69254147D01*
X162207519Y-69161015D01*
X162088985Y-69042481D01*
X161995853Y-68903100D01*
X161931703Y-68748228D01*
X161899000Y-68583816D01*
X161899000Y-68416184D01*
X161931703Y-68251772D01*
X161995853Y-68096900D01*
X162088985Y-67957519D01*
X162207519Y-67838985D01*
X162346900Y-67745853D01*
X162501772Y-67681703D01*
X162666184Y-67649000D01*
X162833816Y-67649000D01*
X162998228Y-67681703D01*
G37*
G36*
X155248228Y-67681703D02*
G01*
X155403100Y-67745853D01*
X155542481Y-67838985D01*
X155661015Y-67957519D01*
X155754147Y-68096900D01*
X155818297Y-68251772D01*
X155851000Y-68416184D01*
X155851000Y-68583816D01*
X155818297Y-68748228D01*
X155754147Y-68903100D01*
X155661015Y-69042481D01*
X155542481Y-69161015D01*
X155403100Y-69254147D01*
X155248228Y-69318297D01*
X155083816Y-69351000D01*
X154916184Y-69351000D01*
X154751772Y-69318297D01*
X154596900Y-69254147D01*
X154457519Y-69161015D01*
X154338985Y-69042481D01*
X154245853Y-68903100D01*
X154181703Y-68748228D01*
X154149000Y-68583816D01*
X154149000Y-68416184D01*
X154181703Y-68251772D01*
X154245853Y-68096900D01*
X154338985Y-67957519D01*
X154457519Y-67838985D01*
X154596900Y-67745853D01*
X154751772Y-67681703D01*
X154916184Y-67649000D01*
X155083816Y-67649000D01*
X155248228Y-67681703D01*
G37*
G36*
X171851000Y-69351000D02*
G01*
X170149000Y-69351000D01*
X170149000Y-67649000D01*
X171851000Y-67649000D01*
X171851000Y-69351000D01*
G37*
G36*
X117613512Y-67263927D02*
G01*
X117762812Y-67293624D01*
X117926784Y-67361544D01*
X118074354Y-67460147D01*
X118199853Y-67585646D01*
X118298456Y-67733216D01*
X118366376Y-67897188D01*
X118401000Y-68071259D01*
X118401000Y-68248741D01*
X118366376Y-68422812D01*
X118298456Y-68586784D01*
X118199853Y-68734354D01*
X118074354Y-68859853D01*
X117926784Y-68958456D01*
X117762812Y-69026376D01*
X117613512Y-69056073D01*
X117588742Y-69061000D01*
X117411258Y-69061000D01*
X117386488Y-69056073D01*
X117237188Y-69026376D01*
X117073216Y-68958456D01*
X116925646Y-68859853D01*
X116800147Y-68734354D01*
X116701544Y-68586784D01*
X116633624Y-68422812D01*
X116599000Y-68248741D01*
X116599000Y-68071259D01*
X116633624Y-67897188D01*
X116701544Y-67733216D01*
X116800147Y-67585646D01*
X116925646Y-67460147D01*
X117073216Y-67361544D01*
X117237188Y-67293624D01*
X117386488Y-67263927D01*
X117411258Y-67259000D01*
X117588742Y-67259000D01*
X117613512Y-67263927D01*
G37*
G36*
X212901000Y-66901000D02*
G01*
X211099000Y-66901000D01*
X211099000Y-65099000D01*
X212901000Y-65099000D01*
X212901000Y-66901000D01*
G37*
G36*
X193248228Y-65181703D02*
G01*
X193403100Y-65245853D01*
X193542481Y-65338985D01*
X193661015Y-65457519D01*
X193754147Y-65596900D01*
X193818297Y-65751772D01*
X193851000Y-65916184D01*
X193851000Y-66083816D01*
X193818297Y-66248228D01*
X193754147Y-66403100D01*
X193661015Y-66542481D01*
X193542481Y-66661015D01*
X193403100Y-66754147D01*
X193248228Y-66818297D01*
X193083816Y-66851000D01*
X192916184Y-66851000D01*
X192751772Y-66818297D01*
X192596900Y-66754147D01*
X192457519Y-66661015D01*
X192338985Y-66542481D01*
X192245853Y-66403100D01*
X192181703Y-66248228D01*
X192149000Y-66083816D01*
X192149000Y-65916184D01*
X192181703Y-65751772D01*
X192245853Y-65596900D01*
X192338985Y-65457519D01*
X192457519Y-65338985D01*
X192596900Y-65245853D01*
X192751772Y-65181703D01*
X192916184Y-65149000D01*
X193083816Y-65149000D01*
X193248228Y-65181703D01*
G37*
G36*
X117613512Y-64723927D02*
G01*
X117762812Y-64753624D01*
X117926784Y-64821544D01*
X118074354Y-64920147D01*
X118199853Y-65045646D01*
X118298456Y-65193216D01*
X118366376Y-65357188D01*
X118401000Y-65531259D01*
X118401000Y-65708741D01*
X118366376Y-65882812D01*
X118298456Y-66046784D01*
X118199853Y-66194354D01*
X118074354Y-66319853D01*
X117926784Y-66418456D01*
X117762812Y-66486376D01*
X117613512Y-66516073D01*
X117588742Y-66521000D01*
X117411258Y-66521000D01*
X117386488Y-66516073D01*
X117237188Y-66486376D01*
X117073216Y-66418456D01*
X116925646Y-66319853D01*
X116800147Y-66194354D01*
X116701544Y-66046784D01*
X116633624Y-65882812D01*
X116599000Y-65708741D01*
X116599000Y-65531259D01*
X116633624Y-65357188D01*
X116701544Y-65193216D01*
X116800147Y-65045646D01*
X116925646Y-64920147D01*
X117073216Y-64821544D01*
X117237188Y-64753624D01*
X117386488Y-64723927D01*
X117411258Y-64719000D01*
X117588742Y-64719000D01*
X117613512Y-64723927D01*
G37*
G36*
X142251000Y-66251000D02*
G01*
X139749000Y-66251000D01*
X139749000Y-63749000D01*
X142251000Y-63749000D01*
X142251000Y-66251000D01*
G37*
G36*
X212113512Y-62563927D02*
G01*
X212262812Y-62593624D01*
X212426784Y-62661544D01*
X212574354Y-62760147D01*
X212699853Y-62885646D01*
X212798456Y-63033216D01*
X212866376Y-63197188D01*
X212901000Y-63371259D01*
X212901000Y-63548741D01*
X212866376Y-63722812D01*
X212798456Y-63886784D01*
X212699853Y-64034354D01*
X212574354Y-64159853D01*
X212426784Y-64258456D01*
X212262812Y-64326376D01*
X212113512Y-64356073D01*
X212088742Y-64361000D01*
X211911258Y-64361000D01*
X211886488Y-64356073D01*
X211737188Y-64326376D01*
X211573216Y-64258456D01*
X211425646Y-64159853D01*
X211300147Y-64034354D01*
X211201544Y-63886784D01*
X211133624Y-63722812D01*
X211099000Y-63548741D01*
X211099000Y-63371259D01*
X211133624Y-63197188D01*
X211201544Y-63033216D01*
X211300147Y-62885646D01*
X211425646Y-62760147D01*
X211573216Y-62661544D01*
X211737188Y-62593624D01*
X211886488Y-62563927D01*
X211911258Y-62559000D01*
X212088742Y-62559000D01*
X212113512Y-62563927D01*
G37*
G36*
X193248228Y-62681703D02*
G01*
X193403100Y-62745853D01*
X193542481Y-62838985D01*
X193661015Y-62957519D01*
X193754147Y-63096900D01*
X193818297Y-63251772D01*
X193851000Y-63416184D01*
X193851000Y-63583816D01*
X193818297Y-63748228D01*
X193754147Y-63903100D01*
X193661015Y-64042481D01*
X193542481Y-64161015D01*
X193403100Y-64254147D01*
X193248228Y-64318297D01*
X193083816Y-64351000D01*
X192916184Y-64351000D01*
X192751772Y-64318297D01*
X192596900Y-64254147D01*
X192457519Y-64161015D01*
X192338985Y-64042481D01*
X192245853Y-63903100D01*
X192181703Y-63748228D01*
X192149000Y-63583816D01*
X192149000Y-63416184D01*
X192181703Y-63251772D01*
X192245853Y-63096900D01*
X192338985Y-62957519D01*
X192457519Y-62838985D01*
X192596900Y-62745853D01*
X192751772Y-62681703D01*
X192916184Y-62649000D01*
X193083816Y-62649000D01*
X193248228Y-62681703D01*
G37*
G36*
X155851000Y-64351000D02*
G01*
X154149000Y-64351000D01*
X154149000Y-62649000D01*
X155851000Y-62649000D01*
X155851000Y-64351000D01*
G37*
G36*
X117613512Y-62183927D02*
G01*
X117762812Y-62213624D01*
X117926784Y-62281544D01*
X118074354Y-62380147D01*
X118199853Y-62505646D01*
X118298456Y-62653216D01*
X118366376Y-62817188D01*
X118401000Y-62991259D01*
X118401000Y-63168741D01*
X118366376Y-63342812D01*
X118298456Y-63506784D01*
X118199853Y-63654354D01*
X118074354Y-63779853D01*
X117926784Y-63878456D01*
X117762812Y-63946376D01*
X117613512Y-63976073D01*
X117588742Y-63981000D01*
X117411258Y-63981000D01*
X117386488Y-63976073D01*
X117237188Y-63946376D01*
X117073216Y-63878456D01*
X116925646Y-63779853D01*
X116800147Y-63654354D01*
X116701544Y-63506784D01*
X116633624Y-63342812D01*
X116599000Y-63168741D01*
X116599000Y-62991259D01*
X116633624Y-62817188D01*
X116701544Y-62653216D01*
X116800147Y-62505646D01*
X116925646Y-62380147D01*
X117073216Y-62281544D01*
X117237188Y-62213624D01*
X117386488Y-62183927D01*
X117411258Y-62179000D01*
X117588742Y-62179000D01*
X117613512Y-62183927D01*
G37*
G36*
X177693466Y-60661015D02*
G01*
X177894072Y-60700918D01*
X178139939Y-60802759D01*
X178140018Y-60802812D01*
X178361211Y-60950609D01*
X178549391Y-61138789D01*
X178578806Y-61182812D01*
X178688370Y-61346784D01*
X178697242Y-61360063D01*
X178799082Y-61605928D01*
X178851000Y-61866937D01*
X178851000Y-62133063D01*
X178834975Y-62213624D01*
X178799082Y-62394072D01*
X178697241Y-62639939D01*
X178626472Y-62745852D01*
X178578806Y-62817189D01*
X178549390Y-62861212D01*
X178361212Y-63049390D01*
X178139939Y-63197241D01*
X178139938Y-63197242D01*
X178139937Y-63197242D01*
X177894072Y-63299082D01*
X177633063Y-63351000D01*
X177366937Y-63351000D01*
X177105928Y-63299082D01*
X176860063Y-63197242D01*
X176860062Y-63197242D01*
X176860061Y-63197241D01*
X176638788Y-63049390D01*
X176450610Y-62861212D01*
X176421195Y-62817189D01*
X176373528Y-62745852D01*
X176302759Y-62639939D01*
X176200918Y-62394072D01*
X176165025Y-62213624D01*
X176149000Y-62133063D01*
X176149000Y-61866937D01*
X176200918Y-61605928D01*
X176302758Y-61360063D01*
X176311631Y-61346784D01*
X176421194Y-61182812D01*
X176450609Y-61138789D01*
X176638789Y-60950609D01*
X176859982Y-60802812D01*
X176860061Y-60802759D01*
X177105928Y-60700918D01*
X177306534Y-60661015D01*
X177366937Y-60649000D01*
X177633063Y-60649000D01*
X177693466Y-60661015D01*
G37*
G36*
X212113512Y-60023927D02*
G01*
X212262812Y-60053624D01*
X212426784Y-60121544D01*
X212574354Y-60220147D01*
X212699853Y-60345646D01*
X212798456Y-60493216D01*
X212866376Y-60657188D01*
X212901000Y-60831259D01*
X212901000Y-61008741D01*
X212866376Y-61182812D01*
X212798456Y-61346784D01*
X212699853Y-61494354D01*
X212574354Y-61619853D01*
X212426784Y-61718456D01*
X212262812Y-61786376D01*
X212113512Y-61816073D01*
X212088742Y-61821000D01*
X211911258Y-61821000D01*
X211886488Y-61816073D01*
X211737188Y-61786376D01*
X211573216Y-61718456D01*
X211425646Y-61619853D01*
X211300147Y-61494354D01*
X211201544Y-61346784D01*
X211133624Y-61182812D01*
X211099000Y-61008741D01*
X211099000Y-60831259D01*
X211133624Y-60657188D01*
X211201544Y-60493216D01*
X211300147Y-60345646D01*
X211425646Y-60220147D01*
X211573216Y-60121544D01*
X211737188Y-60053624D01*
X211886488Y-60023927D01*
X211911258Y-60019000D01*
X212088742Y-60019000D01*
X212113512Y-60023927D01*
G37*
G36*
X117613512Y-59643927D02*
G01*
X117762812Y-59673624D01*
X117926784Y-59741544D01*
X118074354Y-59840147D01*
X118199853Y-59965646D01*
X118298456Y-60113216D01*
X118366376Y-60277188D01*
X118401000Y-60451259D01*
X118401000Y-60628741D01*
X118366376Y-60802812D01*
X118298456Y-60966784D01*
X118199853Y-61114354D01*
X118074354Y-61239853D01*
X117926784Y-61338456D01*
X117762812Y-61406376D01*
X117613512Y-61436073D01*
X117588742Y-61441000D01*
X117411258Y-61441000D01*
X117386488Y-61436073D01*
X117237188Y-61406376D01*
X117073216Y-61338456D01*
X116925646Y-61239853D01*
X116800147Y-61114354D01*
X116701544Y-60966784D01*
X116633624Y-60802812D01*
X116599000Y-60628741D01*
X116599000Y-60451259D01*
X116633624Y-60277188D01*
X116701544Y-60113216D01*
X116800147Y-59965646D01*
X116925646Y-59840147D01*
X117073216Y-59741544D01*
X117237188Y-59673624D01*
X117386488Y-59643927D01*
X117411258Y-59639000D01*
X117588742Y-59639000D01*
X117613512Y-59643927D01*
G37*
G36*
X155248228Y-59181703D02*
G01*
X155403100Y-59245853D01*
X155542481Y-59338985D01*
X155661015Y-59457519D01*
X155754147Y-59596900D01*
X155818297Y-59751772D01*
X155851000Y-59916184D01*
X155851000Y-60083816D01*
X155818297Y-60248228D01*
X155754147Y-60403100D01*
X155661015Y-60542481D01*
X155542481Y-60661015D01*
X155403100Y-60754147D01*
X155248228Y-60818297D01*
X155083816Y-60851000D01*
X154916184Y-60851000D01*
X154751772Y-60818297D01*
X154596900Y-60754147D01*
X154457519Y-60661015D01*
X154338985Y-60542481D01*
X154245853Y-60403100D01*
X154181703Y-60248228D01*
X154149000Y-60083816D01*
X154149000Y-59916184D01*
X154181703Y-59751772D01*
X154245853Y-59596900D01*
X154338985Y-59457519D01*
X154457519Y-59338985D01*
X154596900Y-59245853D01*
X154751772Y-59181703D01*
X154916184Y-59149000D01*
X155083816Y-59149000D01*
X155248228Y-59181703D01*
G37*
G36*
X130751000Y-59951000D02*
G01*
X126249000Y-59951000D01*
X126249000Y-58049000D01*
X130751000Y-58049000D01*
X130751000Y-59951000D01*
G37*
G36*
X212113512Y-57483927D02*
G01*
X212262812Y-57513624D01*
X212426784Y-57581544D01*
X212574354Y-57680147D01*
X212699853Y-57805646D01*
X212798456Y-57953216D01*
X212866376Y-58117188D01*
X212901000Y-58291259D01*
X212901000Y-58468741D01*
X212866376Y-58642812D01*
X212798456Y-58806784D01*
X212699853Y-58954354D01*
X212574354Y-59079853D01*
X212426784Y-59178456D01*
X212262812Y-59246376D01*
X212113512Y-59276073D01*
X212088742Y-59281000D01*
X211911258Y-59281000D01*
X211886488Y-59276073D01*
X211737188Y-59246376D01*
X211573216Y-59178456D01*
X211425646Y-59079853D01*
X211300147Y-58954354D01*
X211201544Y-58806784D01*
X211133624Y-58642812D01*
X211099000Y-58468741D01*
X211099000Y-58291259D01*
X211133624Y-58117188D01*
X211201544Y-57953216D01*
X211300147Y-57805646D01*
X211425646Y-57680147D01*
X211573216Y-57581544D01*
X211737188Y-57513624D01*
X211886488Y-57483927D01*
X211911258Y-57479000D01*
X212088742Y-57479000D01*
X212113512Y-57483927D01*
G37*
G36*
X117613512Y-57103927D02*
G01*
X117762812Y-57133624D01*
X117926784Y-57201544D01*
X118074354Y-57300147D01*
X118199853Y-57425646D01*
X118298456Y-57573216D01*
X118366376Y-57737188D01*
X118401000Y-57911259D01*
X118401000Y-58088741D01*
X118366376Y-58262812D01*
X118298456Y-58426784D01*
X118199853Y-58574354D01*
X118074354Y-58699853D01*
X117926784Y-58798456D01*
X117762812Y-58866376D01*
X117613512Y-58896073D01*
X117588742Y-58901000D01*
X117411258Y-58901000D01*
X117386488Y-58896073D01*
X117237188Y-58866376D01*
X117073216Y-58798456D01*
X116925646Y-58699853D01*
X116800147Y-58574354D01*
X116701544Y-58426784D01*
X116633624Y-58262812D01*
X116599000Y-58088741D01*
X116599000Y-57911259D01*
X116633624Y-57737188D01*
X116701544Y-57573216D01*
X116800147Y-57425646D01*
X116925646Y-57300147D01*
X117073216Y-57201544D01*
X117237188Y-57133624D01*
X117386488Y-57103927D01*
X117411258Y-57099000D01*
X117588742Y-57099000D01*
X117613512Y-57103927D01*
G37*
G36*
X148401000Y-58901000D02*
G01*
X146599000Y-58901000D01*
X146599000Y-57099000D01*
X148401000Y-57099000D01*
X148401000Y-58901000D01*
G37*
G36*
X137401000Y-58901000D02*
G01*
X135599000Y-58901000D01*
X135599000Y-57099000D01*
X137401000Y-57099000D01*
X137401000Y-58901000D01*
G37*
G36*
X177894072Y-55700918D02*
G01*
X178139939Y-55802759D01*
X178251328Y-55877187D01*
X178361211Y-55950609D01*
X178549391Y-56138789D01*
X178591029Y-56201104D01*
X178674733Y-56326375D01*
X178697242Y-56360063D01*
X178799082Y-56605928D01*
X178851000Y-56866937D01*
X178851000Y-57133063D01*
X178799082Y-57394072D01*
X178724879Y-57573216D01*
X178697241Y-57639939D01*
X178549390Y-57861212D01*
X178361212Y-58049390D01*
X178139939Y-58197241D01*
X178139938Y-58197242D01*
X178139937Y-58197242D01*
X177894072Y-58299082D01*
X177633063Y-58351000D01*
X177366937Y-58351000D01*
X177105928Y-58299082D01*
X176860063Y-58197242D01*
X176860062Y-58197242D01*
X176860061Y-58197241D01*
X176638788Y-58049390D01*
X176450610Y-57861212D01*
X176302759Y-57639939D01*
X176275122Y-57573216D01*
X176200918Y-57394072D01*
X176149000Y-57133063D01*
X176149000Y-56866937D01*
X176200918Y-56605928D01*
X176302758Y-56360063D01*
X176325268Y-56326375D01*
X176408971Y-56201104D01*
X176450609Y-56138789D01*
X176638789Y-55950609D01*
X176748672Y-55877187D01*
X176860061Y-55802759D01*
X177105928Y-55700918D01*
X177366937Y-55649000D01*
X177633063Y-55649000D01*
X177894072Y-55700918D01*
G37*
G36*
X123886425Y-53962760D02*
G01*
X123886428Y-53962761D01*
X123886429Y-53962761D01*
X124065693Y-54017140D01*
X124065696Y-54017142D01*
X124065697Y-54017142D01*
X124230903Y-54105446D01*
X124375712Y-54224288D01*
X124494554Y-54369097D01*
X124582858Y-54534303D01*
X124582860Y-54534307D01*
X124637239Y-54713571D01*
X124637240Y-54713575D01*
X124651000Y-54853282D01*
X124651000Y-57146718D01*
X124637240Y-57286425D01*
X124637239Y-57286428D01*
X124637239Y-57286429D01*
X124582860Y-57465693D01*
X124582858Y-57465696D01*
X124582858Y-57465697D01*
X124494554Y-57630903D01*
X124375712Y-57775712D01*
X124230903Y-57894554D01*
X124065696Y-57982858D01*
X124065692Y-57982860D01*
X123886428Y-58037239D01*
X123886427Y-58037239D01*
X123886424Y-58037240D01*
X123700000Y-58055601D01*
X123513575Y-58037240D01*
X123513572Y-58037239D01*
X123513571Y-58037239D01*
X123334307Y-57982860D01*
X123334303Y-57982858D01*
X123169097Y-57894554D01*
X123024288Y-57775712D01*
X122905446Y-57630903D01*
X122817142Y-57465696D01*
X122817141Y-57465693D01*
X122817140Y-57465692D01*
X122762761Y-57286428D01*
X122762761Y-57286427D01*
X122762760Y-57286424D01*
X122749000Y-57146717D01*
X122749001Y-54853282D01*
X122762761Y-54713575D01*
X122762762Y-54713571D01*
X122817141Y-54534307D01*
X122817143Y-54534303D01*
X122905447Y-54369097D01*
X123024289Y-54224288D01*
X123169098Y-54105446D01*
X123334304Y-54017142D01*
X123334305Y-54017142D01*
X123334308Y-54017140D01*
X123513572Y-53962761D01*
X123513573Y-53962761D01*
X123513576Y-53962760D01*
X123700000Y-53944399D01*
X123886425Y-53962760D01*
G37*
G36*
X205997818Y-54977696D02*
G01*
X206111105Y-55012062D01*
X206215512Y-55067869D01*
X206307027Y-55142973D01*
X206382131Y-55234488D01*
X206437938Y-55338895D01*
X206472304Y-55452182D01*
X206481000Y-55540482D01*
X206481000Y-55999519D01*
X206472304Y-56087818D01*
X206437938Y-56201105D01*
X206382131Y-56305512D01*
X206382130Y-56305513D01*
X206307027Y-56397027D01*
X206231923Y-56458662D01*
X206215511Y-56472131D01*
X206111104Y-56527938D01*
X205997817Y-56562304D01*
X205880000Y-56573907D01*
X205762182Y-56562304D01*
X205648895Y-56527938D01*
X205544488Y-56472131D01*
X205530572Y-56460711D01*
X205452973Y-56397027D01*
X205377870Y-56305512D01*
X205377869Y-56305511D01*
X205322062Y-56201104D01*
X205287696Y-56087817D01*
X205279000Y-55999518D01*
X205279000Y-55540481D01*
X205287696Y-55452182D01*
X205322062Y-55338895D01*
X205377869Y-55234488D01*
X205452974Y-55142973D01*
X205544489Y-55067869D01*
X205648896Y-55012062D01*
X205762183Y-54977696D01*
X205880000Y-54966093D01*
X205997818Y-54977696D01*
G37*
G36*
X201157818Y-54977696D02*
G01*
X201271105Y-55012062D01*
X201375512Y-55067869D01*
X201467027Y-55142973D01*
X201542131Y-55234488D01*
X201597938Y-55338895D01*
X201632304Y-55452182D01*
X201641000Y-55540482D01*
X201641000Y-55999519D01*
X201632304Y-56087818D01*
X201597938Y-56201105D01*
X201542131Y-56305512D01*
X201542130Y-56305513D01*
X201467027Y-56397027D01*
X201391923Y-56458662D01*
X201375511Y-56472131D01*
X201271104Y-56527938D01*
X201157817Y-56562304D01*
X201040000Y-56573907D01*
X200922182Y-56562304D01*
X200808895Y-56527938D01*
X200704488Y-56472131D01*
X200690572Y-56460711D01*
X200612973Y-56397027D01*
X200537870Y-56305512D01*
X200537869Y-56305511D01*
X200482062Y-56201104D01*
X200447696Y-56087817D01*
X200439000Y-55999518D01*
X200439000Y-55540481D01*
X200447696Y-55452182D01*
X200482062Y-55338895D01*
X200537869Y-55234488D01*
X200612974Y-55142973D01*
X200704489Y-55067869D01*
X200808896Y-55012062D01*
X200922183Y-54977696D01*
X201040000Y-54966093D01*
X201157818Y-54977696D01*
G37*
G36*
X136613512Y-54563927D02*
G01*
X136762812Y-54593624D01*
X136926784Y-54661544D01*
X137074354Y-54760147D01*
X137199853Y-54885646D01*
X137298456Y-55033216D01*
X137366376Y-55197188D01*
X137401000Y-55371259D01*
X137401000Y-55548741D01*
X137366376Y-55722812D01*
X137298456Y-55886784D01*
X137199853Y-56034354D01*
X137074354Y-56159853D01*
X136926784Y-56258456D01*
X136762812Y-56326376D01*
X136613512Y-56356073D01*
X136588742Y-56361000D01*
X136411258Y-56361000D01*
X136386488Y-56356073D01*
X136237188Y-56326376D01*
X136073216Y-56258456D01*
X135925646Y-56159853D01*
X135800147Y-56034354D01*
X135701544Y-55886784D01*
X135633624Y-55722812D01*
X135599000Y-55548741D01*
X135599000Y-55371259D01*
X135633624Y-55197188D01*
X135701544Y-55033216D01*
X135800147Y-54885646D01*
X135925646Y-54760147D01*
X136073216Y-54661544D01*
X136237188Y-54593624D01*
X136386488Y-54563927D01*
X136411258Y-54559000D01*
X136588742Y-54559000D01*
X136613512Y-54563927D01*
G37*
G36*
X147613512Y-54563927D02*
G01*
X147762812Y-54593624D01*
X147926784Y-54661544D01*
X148074354Y-54760147D01*
X148199853Y-54885646D01*
X148298456Y-55033216D01*
X148366376Y-55197188D01*
X148401000Y-55371259D01*
X148401000Y-55548741D01*
X148366376Y-55722812D01*
X148298456Y-55886784D01*
X148199853Y-56034354D01*
X148074354Y-56159853D01*
X147926784Y-56258456D01*
X147762812Y-56326376D01*
X147613512Y-56356073D01*
X147588742Y-56361000D01*
X147411258Y-56361000D01*
X147386488Y-56356073D01*
X147237188Y-56326376D01*
X147073216Y-56258456D01*
X146925646Y-56159853D01*
X146800147Y-56034354D01*
X146701544Y-55886784D01*
X146633624Y-55722812D01*
X146599000Y-55548741D01*
X146599000Y-55371259D01*
X146633624Y-55197188D01*
X146701544Y-55033216D01*
X146800147Y-54885646D01*
X146925646Y-54760147D01*
X147073216Y-54661544D01*
X147237188Y-54593624D01*
X147386488Y-54563927D01*
X147411258Y-54559000D01*
X147588742Y-54559000D01*
X147613512Y-54563927D01*
G37*
G36*
X155236719Y-53463520D02*
G01*
X155425880Y-53520901D01*
X155425883Y-53520902D01*
X155509680Y-53565693D01*
X155600212Y-53614083D01*
X155753015Y-53739485D01*
X155878417Y-53892288D01*
X155971599Y-54066619D01*
X156028980Y-54255780D01*
X156043500Y-54403206D01*
X156043500Y-54596793D01*
X156028980Y-54744219D01*
X155971599Y-54933380D01*
X155971598Y-54933383D01*
X155954114Y-54966093D01*
X155878417Y-55107712D01*
X155753015Y-55260515D01*
X155600212Y-55385917D01*
X155425881Y-55479099D01*
X155236720Y-55536480D01*
X155040000Y-55555855D01*
X154843281Y-55536480D01*
X154654120Y-55479099D01*
X154479788Y-55385917D01*
X154326985Y-55260515D01*
X154201583Y-55107712D01*
X154108401Y-54933381D01*
X154051020Y-54744220D01*
X154036500Y-54596794D01*
X154036500Y-54403207D01*
X154051020Y-54255781D01*
X154108401Y-54066620D01*
X154108402Y-54066617D01*
X154173729Y-53944399D01*
X154201583Y-53892288D01*
X154326985Y-53739485D01*
X154479788Y-53614083D01*
X154654119Y-53520901D01*
X154843280Y-53463520D01*
X155040000Y-53444145D01*
X155236719Y-53463520D01*
G37*
G36*
X157776719Y-53463520D02*
G01*
X157965880Y-53520901D01*
X157965883Y-53520902D01*
X158049680Y-53565693D01*
X158140212Y-53614083D01*
X158293015Y-53739485D01*
X158418417Y-53892288D01*
X158511599Y-54066619D01*
X158568980Y-54255780D01*
X158583500Y-54403206D01*
X158583500Y-54596793D01*
X158568980Y-54744219D01*
X158511599Y-54933380D01*
X158511598Y-54933383D01*
X158494114Y-54966093D01*
X158418417Y-55107712D01*
X158293015Y-55260515D01*
X158140212Y-55385917D01*
X157965881Y-55479099D01*
X157776720Y-55536480D01*
X157580000Y-55555855D01*
X157383281Y-55536480D01*
X157194120Y-55479099D01*
X157019788Y-55385917D01*
X156866985Y-55260515D01*
X156741583Y-55107712D01*
X156648401Y-54933381D01*
X156591020Y-54744220D01*
X156576500Y-54596794D01*
X156576500Y-54403207D01*
X156591020Y-54255781D01*
X156648401Y-54066620D01*
X156648402Y-54066617D01*
X156713729Y-53944399D01*
X156741583Y-53892288D01*
X156866985Y-53739485D01*
X157019788Y-53614083D01*
X157194119Y-53520901D01*
X157383280Y-53463520D01*
X157580000Y-53444145D01*
X157776719Y-53463520D01*
G37*
G36*
X153503500Y-55551000D02*
G01*
X151496500Y-55551000D01*
X151496500Y-53449000D01*
X153503500Y-53449000D01*
X153503500Y-55551000D01*
G37*
G36*
X129786425Y-52262760D02*
G01*
X129786428Y-52262761D01*
X129786429Y-52262761D01*
X129965693Y-52317140D01*
X129965696Y-52317142D01*
X129965697Y-52317142D01*
X130130903Y-52405446D01*
X130275712Y-52524288D01*
X130394554Y-52669097D01*
X130482858Y-52834303D01*
X130482860Y-52834307D01*
X130537239Y-53013571D01*
X130537240Y-53013575D01*
X130555601Y-53200000D01*
X130537240Y-53386425D01*
X130537239Y-53386428D01*
X130537239Y-53386429D01*
X130482860Y-53565693D01*
X130482858Y-53565696D01*
X130482858Y-53565697D01*
X130394554Y-53730903D01*
X130275712Y-53875712D01*
X130130903Y-53994554D01*
X129996078Y-54066619D01*
X129965693Y-54082860D01*
X129786429Y-54137239D01*
X129786428Y-54137239D01*
X129786425Y-54137240D01*
X129646718Y-54151000D01*
X127353282Y-54151000D01*
X127213575Y-54137240D01*
X127213572Y-54137239D01*
X127213571Y-54137239D01*
X127034307Y-54082860D01*
X127003922Y-54066619D01*
X126869097Y-53994554D01*
X126724288Y-53875712D01*
X126605446Y-53730903D01*
X126517142Y-53565697D01*
X126517142Y-53565696D01*
X126517140Y-53565693D01*
X126462761Y-53386429D01*
X126462761Y-53386428D01*
X126462760Y-53386425D01*
X126444399Y-53200000D01*
X126462760Y-53013575D01*
X126462761Y-53013571D01*
X126517140Y-52834307D01*
X126517142Y-52834303D01*
X126605446Y-52669097D01*
X126724288Y-52524288D01*
X126869097Y-52405446D01*
X127034303Y-52317142D01*
X127034304Y-52317142D01*
X127034307Y-52317140D01*
X127213571Y-52262761D01*
X127213572Y-52262761D01*
X127213575Y-52262760D01*
X127353282Y-52249000D01*
X129646718Y-52249000D01*
X129786425Y-52262760D01*
G37*
G36*
X206332321Y-51879505D02*
G01*
X206469172Y-51921019D01*
X206469175Y-51921020D01*
X206595294Y-51988432D01*
X206705843Y-52079157D01*
X206796568Y-52189706D01*
X206863980Y-52315824D01*
X206863981Y-52315828D01*
X206905495Y-52452680D01*
X206916000Y-52559342D01*
X206916000Y-52980659D01*
X206905495Y-53087321D01*
X206863981Y-53224171D01*
X206863980Y-53224175D01*
X206796568Y-53350294D01*
X206705843Y-53460842D01*
X206595293Y-53551568D01*
X206469174Y-53618980D01*
X206469171Y-53618981D01*
X206332320Y-53660495D01*
X206190000Y-53674512D01*
X206047679Y-53660495D01*
X205910828Y-53618981D01*
X205910825Y-53618980D01*
X205784706Y-53551568D01*
X205674158Y-53460843D01*
X205583432Y-53350293D01*
X205516020Y-53224174D01*
X205508687Y-53200000D01*
X205474505Y-53087320D01*
X205464000Y-52980658D01*
X205464000Y-52559341D01*
X205474505Y-52452679D01*
X205516019Y-52315828D01*
X205516020Y-52315825D01*
X205583432Y-52189706D01*
X205674158Y-52079157D01*
X205784707Y-51988432D01*
X205910826Y-51921020D01*
X205910829Y-51921019D01*
X206047680Y-51879505D01*
X206190000Y-51865488D01*
X206332321Y-51879505D01*
G37*
G36*
X200872321Y-51879505D02*
G01*
X201009172Y-51921019D01*
X201009175Y-51921020D01*
X201135294Y-51988432D01*
X201245843Y-52079157D01*
X201336568Y-52189706D01*
X201403980Y-52315824D01*
X201403981Y-52315828D01*
X201445495Y-52452680D01*
X201456000Y-52559342D01*
X201456000Y-52980659D01*
X201445495Y-53087321D01*
X201403981Y-53224171D01*
X201403980Y-53224175D01*
X201336568Y-53350294D01*
X201245843Y-53460842D01*
X201135293Y-53551568D01*
X201009174Y-53618980D01*
X201009171Y-53618981D01*
X200872320Y-53660495D01*
X200730000Y-53674512D01*
X200587679Y-53660495D01*
X200450828Y-53618981D01*
X200450825Y-53618980D01*
X200324706Y-53551568D01*
X200214158Y-53460843D01*
X200123432Y-53350293D01*
X200056020Y-53224174D01*
X200048687Y-53200000D01*
X200014505Y-53087320D01*
X200004000Y-52980658D01*
X200004000Y-52559341D01*
X200014505Y-52452679D01*
X200056019Y-52315828D01*
X200056020Y-52315825D01*
X200123432Y-52189706D01*
X200214158Y-52079157D01*
X200324707Y-51988432D01*
X200450826Y-51921020D01*
X200450829Y-51921019D01*
X200587680Y-51879505D01*
X200730000Y-51865488D01*
X200872321Y-51879505D01*
G37*
M02*
